<?xml version="1.0" encoding="utf-8"?>
<!-- Generator: Adobe Illustrator 24.1.3, SVG Export Plug-In . SVG Version: 6.00 Build 0)  -->
<svg version="1.1" id="Layer_1" xmlns="http://www.w3.org/2000/svg" xmlns:xlink="http://www.w3.org/1999/xlink" x="0px" y="0px"
	 width="861.5px" height="201.4px" viewBox="0 0 861.5 201.4" style="enable-background:new 0 0 861.5 201.4;" xml:space="preserve"
	>
<style type="text/css">
	.st0{fill:#B8DFD1;}
	.st1{fill:#6B6C6C;}
	.st2{fill:#808080;}
	.st3{fill:#D2E4DC;}
	.st4{fill:#4A494E;}
</style>
<g>
	<polygon class="st0" points="285.2,135.7 57.9,0 57.9,65.7 285.2,201.4 	"/>
</g>
<g>
	<polygon class="st1" points="0,35.9 57.9,0 57.9,131.8 0,165.3 	"/>
</g>
<g>
	<path class="st2" d="M57.9,0"/>
</g>
<g>
	<polygon class="st3" points="57.9,201.4 0,165.3 285.2,0 342.8,35.9 	"/>
</g>
<g>
	<path class="st1" d="M342.8,165.3c-0.6-0.2-57.5,36-57.5,36V68.9l57.5-33V165.3z"/>
</g>
<g>
	<path class="st4" d="M441.6,63.1c0,5.2-0.8,10-2.5,14.3c-1.7,4.3-4,8-7,11c-3,3.1-6.6,5.4-10.9,7.1c-4.2,1.7-8.9,2.5-14,2.5h-26.1
		V28.2h26.1c5.1,0,9.8,0.8,14,2.5c4.2,1.7,7.9,4,10.9,7.1c3,3.1,5.4,6.8,7,11C440.8,53.1,441.6,57.9,441.6,63.1z M431.9,63.1
		c0-4.3-0.6-8.1-1.8-11.5c-1.2-3.4-2.8-6.2-5-8.6s-4.7-4.1-7.8-5.4s-6.5-1.9-10.2-1.9h-16.6v54.6h16.6c3.7,0,7.1-0.6,10.2-1.9
		c3.1-1.2,5.7-3,7.8-5.3s3.8-5.2,5-8.6C431.3,71.2,431.9,67.4,431.9,63.1z"/>
	<path class="st4" d="M517.8,98h-7.3c-0.8,0-1.5-0.2-2-0.6c-0.5-0.4-0.9-1-1.2-1.6l-6.5-16.9h-31.4l-6.5,16.9
		c-0.2,0.6-0.6,1.1-1.2,1.6c-0.6,0.5-1.2,0.7-2,0.7h-7.3l27.9-69.9h9.6L517.8,98z M472,72.1h26.1l-11-28.4c-0.7-1.8-1.4-3.9-2.1-6.6
		c-0.4,1.3-0.7,2.6-1,3.7c-0.3,1.1-0.7,2.1-1,3L472,72.1z"/>
	<path class="st4" d="M563.6,91.2c1.9,0,3.6-0.1,5.2-0.3c1.6-0.2,3.1-0.4,4.5-0.8c1.4-0.4,2.7-0.8,3.9-1.3s2.5-1.1,3.7-1.7V71.7
		h-10.8c-0.6,0-1.1-0.2-1.5-0.5s-0.6-0.8-0.6-1.3v-5.4h21.5v26.8c-1.8,1.3-3.6,2.4-5.5,3.3c-1.9,0.9-3.9,1.7-6.1,2.4
		c-2.2,0.6-4.5,1.1-6.9,1.4c-2.5,0.3-5.2,0.5-8,0.5c-5.1,0-9.7-0.9-13.9-2.6c-4.2-1.7-7.9-4.2-10.9-7.3c-3.1-3.1-5.4-6.9-7.1-11.3
		c-1.7-4.4-2.6-9.2-2.6-14.5c0-5.3,0.8-10.2,2.5-14.6c1.7-4.4,4.1-8.2,7.2-11.3c3.1-3.1,6.9-5.6,11.3-7.3c4.4-1.7,9.3-2.6,14.8-2.6
		c2.8,0,5.3,0.2,7.7,0.6c2.4,0.4,4.6,1,6.6,1.8c2,0.8,3.9,1.7,5.6,2.8c1.7,1.1,3.3,2.3,4.8,3.7l-2.7,4.3c-0.6,0.9-1.3,1.3-2.1,1.3
		c-0.5,0-1.1-0.2-1.7-0.5c-0.8-0.5-1.7-1-2.7-1.7c-1-0.7-2.2-1.3-3.7-1.9s-3.2-1.1-5.1-1.5s-4.3-0.6-7-0.6c-3.9,0-7.5,0.6-10.7,1.9
		c-3.2,1.3-5.9,3.1-8.1,5.5c-2.2,2.4-4,5.3-5.2,8.7c-1.2,3.4-1.8,7.2-1.8,11.4c0,4.4,0.6,8.4,1.9,11.8c1.3,3.5,3,6.4,5.3,8.8
		c2.3,2.4,5,4.2,8.1,5.5C556.4,90.5,559.9,91.2,563.6,91.2z"/>
	<path class="st4" d="M670.7,98h-7.3c-0.8,0-1.5-0.2-2-0.6c-0.5-0.4-0.9-1-1.2-1.6l-6.5-16.9h-31.4l-6.5,16.9
		c-0.2,0.6-0.6,1.1-1.2,1.6c-0.6,0.5-1.2,0.7-2,0.7h-7.3l27.9-69.9h9.6L670.7,98z M624.9,72.1H651l-11-28.4
		c-0.7-1.8-1.4-3.9-2.1-6.6c-0.4,1.3-0.7,2.6-1,3.7c-0.3,1.1-0.7,2.1-1,3L624.9,72.1z"/>
	<path class="st4" d="M739.5,28.2v3.5c0,1.1-0.3,2.1-1,3.1l-39.5,55.5h39.9V98h-52.3v-3.7c0-1,0.3-1.9,0.9-2.8l39.6-55.7h-38.7v-7.7
		H739.5z"/>
	<path class="st4" d="M428.7,115.2v7.9h-22.6v61.9h-9.5v-61.9h-22.7v-7.9H428.7z"/>
	<path class="st4" d="M503.6,185.1h-9.5v-31.8h-37.6v31.8h-9.5v-69.9h9.5v31.2h37.6v-31.2h9.5V185.1z"/>
	<path class="st4" d="M572.3,115.2v7.7h-33.5v23.2h27.2v7.4h-27.2v23.8h33.5v7.7h-43.1v-69.9H572.3z"/>
	<path class="st4" d="M602.3,155.9v29.2h-9.4v-69.9h19.7c4.4,0,8.2,0.4,11.5,1.3c3.2,0.9,5.9,2.2,8,3.9s3.6,3.7,4.7,6.1
		c1,2.4,1.5,5.1,1.5,8c0,2.5-0.4,4.8-1.2,6.9s-1.9,4.1-3.4,5.8c-1.5,1.7-3.3,3.2-5.4,4.4c-2.1,1.2-4.5,2.1-7.2,2.7
		c1.2,0.7,2.2,1.7,3.1,3l20.4,27.7h-8.4c-1.7,0-3-0.7-3.8-2l-18.1-25c-0.6-0.8-1.2-1.3-1.8-1.7c-0.7-0.3-1.6-0.5-2.9-0.5H602.3z
		 M602.3,149h9.9c2.8,0,5.2-0.3,7.3-1c2.1-0.7,3.9-1.6,5.3-2.8s2.5-2.7,3.2-4.4c0.7-1.7,1.1-3.6,1.1-5.6c0-4.2-1.4-7.3-4.1-9.4
		c-2.7-2.1-6.8-3.2-12.3-3.2h-10.3V149z"/>
	<path class="st4" d="M724.8,185.1h-7.3c-0.8,0-1.5-0.2-2-0.6c-0.5-0.4-0.9-1-1.2-1.6l-6.5-16.9h-31.4l-6.5,16.9
		c-0.2,0.6-0.6,1.1-1.2,1.6c-0.6,0.5-1.2,0.7-2,0.7h-7.3l27.9-69.9h9.6L724.8,185.1z M679,159.1h26.1l-11-28.4
		c-0.7-1.8-1.4-3.9-2.1-6.6c-0.4,1.3-0.7,2.6-1,3.7c-0.3,1.1-0.7,2.1-1,3L679,159.1z"/>
	<path class="st4" d="M752.4,158.9v26.1H743v-69.9h20.6c4.4,0,8.3,0.5,11.5,1.5c3.3,1,6,2.5,8.1,4.4c2.1,1.9,3.7,4.2,4.8,6.8
		c1.1,2.7,1.6,5.6,1.6,8.9c0,3.3-0.6,6.2-1.7,8.9c-1.1,2.7-2.8,5-5,7c-2.2,2-4.9,3.5-8.2,4.6c-3.3,1.1-7,1.6-11.2,1.6H752.4z
		 M752.4,151.4h11.2c2.7,0,5.1-0.4,7.1-1.1c2.1-0.7,3.8-1.7,5.2-3c1.4-1.3,2.5-2.8,3.2-4.6c0.7-1.8,1.1-3.8,1.1-5.9
		c0-4.5-1.4-7.9-4.1-10.4c-2.7-2.5-6.9-3.8-12.5-3.8h-11.2V151.4z"/>
	<path class="st4" d="M835.8,157.3v27.8h-9.4v-27.8l-25.6-42.1h8.3c0.8,0,1.5,0.2,2,0.6c0.5,0.4,0.9,0.9,1.3,1.6l16,27.2
		c0.6,1.1,1.2,2.2,1.6,3.2c0.4,1,0.8,2,1.2,3c0.4-1,0.7-2,1.2-3c0.4-1,1-2.1,1.6-3.2l15.9-27.2c0.3-0.5,0.7-1,1.2-1.5
		c0.5-0.5,1.2-0.7,2-0.7h8.4L835.8,157.3z"/>
</g>
</svg>
