<?xml version="1.0" encoding="utf-8"?>
<!-- Generator: Adobe Illustrator 24.1.2, SVG Export Plug-In . SVG Version: 6.00 Build 0)  -->
<svg version="1.1" id="Layer_1" xmlns="http://www.w3.org/2000/svg" xmlns:xlink="http://www.w3.org/1999/xlink" x="0px" y="0px"
	 width="426.7px" height="88.5px" viewBox="0 0 426.7 88.5" style="enable-background:new 0 0 426.7 88.5;" xml:space="preserve">
<style type="text/css">
	.st0{fill:#747474;}
</style>
<path class="st0" d="M426.7,66.1c-14.5,7.2-7.6-15.3-18.2-10.7c-24,22.6-17.1-36.6-12.8-47.4c13,1.2,4.4,21.4,6.4,30.3
	C403.6,52.9,426.2,31.5,426.7,66.1z"/>
<path class="st0" d="M244.3,71.5c-20.5,15.2-3.2-33.3-41.6-14c-10,1.1-2.6,19.2-14.1,16.4C192.4-19.4,220.3-28.9,244.3,71.5z
	 M209,46.1c23.1,1.6,9.9-21.9,1.9-33.1C209.4,21.1,195.2,46.5,209,46.1z"/>
<path d="M18,43.2c20.1-11.4,16.6,5.9,0.2,8.9c-9.9,1.7-6.3,13.5-7.6,20.8c1.4,17.3,23.2-6.5,31.5,1.2C41.5,86.4,19.7,89.7,9,88.2
	C-15.6,71.6,14.7-4,47.9,8.5C39.6,21.9,14.9,21.6,18,43.2z"/>
<path class="st0" d="M298.4,48.1c15.7-18.2,34.4,20.3,16.2,17.7c-8.3-23.8-14,6.5-24.1-5.7C278,20.9,293.9-21.3,298.4,48.1z"/>
<path class="st0" d="M265,42.1c27.9,21,4.1,51.6-8.1,24.3c26.8-5.3-11.2-15.8-1.6-31.2C264,19.8,286.3,46.7,265,42.1z"/>
<path class="st0" d="M369.7,42.4c16.5,15.4,14.1,41.6-11,25.2c25.3-13.2-10.6-18.6,3.8-34.7C370.9,26.8,383.4,39.1,369.7,42.4z"/>
<path d="M56.1,59.7c-2.9-6.3-2.4-28.6,6-16.2c3.4,7.7,21.7-10.2,22,8.1c-6.1,4.8-16,0.7-17,12C64.2,76.8,51.4,69,56.1,59.7z"/>
<path d="M135.1,69.5c-26.6,5.4-19.6-37.4,0.5-26.5c6.1,6.8-5.6,7.4-8.7,12.3c3.8,6.5,9.9,4.8,16.2,5.3
	C154.3,64.1,142.4,72.1,135.1,69.5z"/>
<path d="M98.6,52.8c-4.5,15.8,16,1.6,10.2,15.2C80.1,92.6,92,19.8,98.6,52.8z"/>
<path class="st0" d="M327,49c0.6-9,12.7-15.6,10.2-2.3c-2.4,11.9,11.6,0.7,13.6,9.1C348.3,68.9,324.9,62.3,327,49z"/>
<path class="st0" d="M334.3,30.5c-5.5-4.8-5.3-7.3,0.6-10C340.6,22.4,339.4,26.4,334.3,30.5z"/>
<path d="M95.7,34.3c-4.5-5.2-6.5-6.4-1-10.6C99.8,27.2,99.4,28.5,95.7,34.3z"/>
</svg>
