<?xml version="1.0" encoding="utf-8"?>
<!-- Generator: Adobe Illustrator 24.2.3, SVG Export Plug-In . SVG Version: 6.00 Build 0)  -->
<svg version="1.1" id="Layer_1" xmlns="http://www.w3.org/2000/svg" xmlns:xlink="http://www.w3.org/1999/xlink" x="0px" y="0px"
	 viewBox="0 0 56.5 62.2" style="enable-background:new 0 0 56.5 62.2;" xml:space="preserve">
<style type="text/css">
	.st0{fill:#E6E4D0;}
	.st1{fill:none;stroke:#517487;stroke-width:2;}
	.st2{fill:#B9C7CF;}
	.st3{fill:#517487;}
</style>
<g id="Group_2" transform="translate(-477.945 -127)">
	<g id="Ellipse_1" transform="translate(479 127)">
		<ellipse class="st0" cx="27.5" cy="27" rx="27.5" ry="27"/>
		<ellipse class="st1" cx="27.5" cy="27" rx="26.5" ry="26"/>
	</g>
	<g id="Group_8" transform="translate(477.945 127)">
		<path id="Path_12" class="st2" d="M20.2,11.9l0.9,3.5l-3.8,0.5c0,0,8.8,5.9,9.5,7.5s3.3,3.4,4,4.4s2.5,2.2,0.8,4.7
			c-1.7,2.6-6.2,9.1-14.2,10.9v3.6l0.9-0.9c0,0,5.4,0,16.8-3.9c0,0,8.6-1.4,8.3-15.4C43.3,26.9,45.5,11.5,20.2,11.9z"/>
		<g id="Group_7" transform="translate(0 0)">
			<path id="Path_13" class="st3" d="M38.2,23.7c0.2-1.5,1.7-4.1-0.2-4.9c-0.1,0.1-1.7,3.3-1.7,2.4c0.9-1.4,1.2-3.6-0.7-4.1
				c0.5,1-1.5,3.8-0.8,1.3c0.4-0.7-0.3-6.5-0.4-3.4c0,3.2-2.2-1-6.4,0c-0.2,0-0.2,0.1-0.1,0.2c0.9,1.5-2.1,1.3-1.3-0.1
				c0.2-0.7,1.2,0.1,1.1-0.4c-0.8-1.5-1.9-0.2-1.5,1c-0.7-0.8-1.5-1.5-2.4-2c-0.4-0.5-3.2-1.6-2.3-0.8c1.7,0.9,2.9,2.5,3.5,4.3
				c0.5,1.1-0.4,0.5-1,0.2c-1.3-0.5-2.7-0.9-4.1-1.3c-4.8-0.5,0.3,0.7,1.9,2.2c2,1.9,4.3,4.1,7.1,4.6c1.4,0.3,2.6-0.4,3.8-0.5
				c-0.5,0.6-1,1.1-1.5,1.5c-0.6,0.6-3.2,0.9-3.1,1.4c1.2,1,2.3,2.3,3.1,3.7c-0.9,0.1-1.9-0.5-2.9-0.4c-3.7-0.6-7.5-0.7-11.3-0.4
				c-1.5,0.1-3.1,0.3-4.6,0.5c0.6-0.6,1.7-0.5,2.4-0.9c2.8-0.6,5.6-1.3,8.4-1.8c0.7-0.3,2.8,0.1,2.8-0.8c-1.9-3.5-5-6.3-8.6-8
				c-1.4-0.7-3-1.2-4.5-1.5c0.7-0.5,1.9,0,2.8,0c0.3,0,1.5,0.5,1.5,0.1c0.7-0.1,1.3-0.2,2-0.2c2.7,0.3-0.4-3.3-1.4-3.9
				C12.6,8.4,7.1,5.3,2.1,1.5C1.5,1-1.6-0.8,1,0.4c4.4,2.7,9,5,13.4,7.7c3.8,2.3,7.9,4.4,12.5,3.3c1.1-0.4,2.5,0.2,3.4-0.3
				c1.8-1.7,3.7-3.2,5.8-4.4c2-0.9,9.4-5.1,3.8-0.5c-5.6,7.3,3,12.2,3.5,19.3c4.1,0.5,8.4,0.9,12.6,1.8c0.4-0.1,0.5,0.4,0,0.3
				c-3.6-0.4-7.2-0.4-10.7,0.1c-3.8,0.4-7.1,1.3-10.1-1.5c-0.6-1.2,0.8-0.6,1.4-0.9c1.8,0.3,3.8-0.1,5.7,0.2c2.5,0.8-0.8-3.6-1-3
				c-0.1,0.7-0.3,1.7-0.9,2c0.3-1.1,0.8-2.9-0.3-3.7c-0.3-0.2-0.5-0.5-0.5,0C39.3,21.8,38.8,22.8,38.2,23.7z"/>
			<path id="Path_14" class="st3" d="M33,37.5c0.3-1.3-0.3-7.3-1-2.9c0.2,0.3,0.4,2.8-0.1,2c0.2-0.9-0.7-2.3-1.2-0.9
				c-0.5,0.7,0.5,1.8-0.3,2.3c-0.5-2.5-1.1-0.3-2.3,0.3c-2.4,2-5.1,3.7-8,5c-5.4,2.4,5.2-0.9,6.5-1.8c-1.4,1.6-3.8,2.4-5.8,3.3
				c-0.6,0.2-3.5,0.9-1.5,0.8c2.7,0.5,5.7-0.4,8.3-0.9c-1.7,0.8-3.7,1.6-5,3.2c-0.7-3.5-4.1-0.3-3.8,2.2c-0.6,3-1.9,5.8-3.8,8.2
				c-1,1.1-3.4,4.3-4.5,4c1.4-1.7,2.5-3.6,3.4-5.6c1.1-3.3,2.4-7.7,0.8-10.9c-0.2-0.3,0.9-0.6,0.2-1c-0.9-0.7,0-1-0.2-1.9
				c-2-4.5-4.9-9-9.6-10.9c3.6-0.3,8.3,2.4,10.5,5.6c1,1.2,1.5,2.9,2.8,3.8c1.1,1,3.9,0.6,3.4-1.2c-1.8-3-0.4-2.3,2-1.4
				c1.5,0.3,3-1.3,4.1-2.2c2.1-1.5,3.3-4,4.4-6.3C33.6,32.2,34.3,35.2,33,37.5z"/>
			<path id="Path_15" class="st3" d="M38.3,37.3c0.3-1.1-0.1-2.2-0.1-3.2c0.8,1.4,0.8,3.3,0.9,4.9c0.1,0.6,0.8-0.7,1.1-0.9
				c0.8-0.5,3-7.1,2.3-4.3c-0.5,3-2.1,5.6-3.6,8c-0.7,2.4-2.4,6.8-4.3,7.5c3.3-8-6.1-4.2-4.8-6.1C33.5,43.2,37.8,41.4,38.3,37.3z"/>
		</g>
	</g>
</g>
</svg>
