<?xml version="1.0" encoding="utf-8"?>
<!-- Generator: Adobe Illustrator 24.2.0, SVG Export Plug-In . SVG Version: 6.00 Build 0)  -->
<svg version="1.1" id="Layer_1" xmlns="http://www.w3.org/2000/svg" xmlns:xlink="http://www.w3.org/1999/xlink" x="0px" y="0px"
	 viewBox="0 0 761.95 94.53" style="enable-background:new 0 0 761.95 94.53;" xml:space="preserve">
<style type="text/css">
	.st0{fill:url(#SVGID_1_);}
	.st1{fill:url(#SVGID_2_);}
	.st2{fill:#532670;}
	.st3{fill:#303030;}
</style>
<g>
	<g>
		<g>
			
				<radialGradient id="SVGID_1_" cx="67.0764" cy="26.0703" r="64.0834" gradientTransform="matrix(0.998 -0.0637 0.0637 0.998 12.1348 33.1503)" gradientUnits="userSpaceOnUse">
				<stop  offset="0" style="stop-color:#A84DC9"/>
				<stop  offset="1" style="stop-color:#532670"/>
			</radialGradient>
			<path class="st0" d="M0.18,33.74c-1.34,11.23,4.76,23.13,13.58,31.21c1.53,1.33,3.15,2.56,4.83,3.64
				c1.68,1.07,3.41,2.01,5.18,2.79c2.01,0.97,4.11,1.8,6.28,2.47c6.19,1.91,12.18,2.26,17.5,1.29c1.78-0.32,3.47-0.79,5.09-1.39
				c-0.9,0.07-2.34,0.02-4.04-0.11c-1.71-0.13-3.68-0.35-5.67-0.64c-1.98-0.29-3.98-0.65-5.71-1.05c-1.75-0.41-3.23-0.88-4.2-1.36
				c-2.01-1-3.95-2.14-5.8-3.44c-12.1-7.36-18.81-23.88-9.27-33.87c1.47-1.59,3.17-2.79,5.03-3.62
				c17.18-6.58,33.81,10.22,47.35,21.41c1.76,1.48,3.5,2.98,5.23,4.5c12.07,10.57,23.54,21.63,36.95,29.62
				c2.12,1.18,4.27,2.3,6.44,3.32c13.05,6.1,26.9,8.81,38.49,2.18c2.07-1.13,4.15-2.48,4.97-3.77c-1.6,0.46-6.12,2.54-7.52,2.82
				c-12.94,2.22-23.47-2.36-35.44-9.76c-2-1.23-3.96-2.54-5.9-3.92c-10.46-8.05-20.19-18.62-30.29-28.42
				c-1.81-1.75-3.46-3.94-4.93-5.41C62.52,26.38,40.08,10.97,17.96,15.69c-1.77,0.39-3.47,0.94-5.07,1.65
				c-4.81,2.13-8.75,5.74-11.07,11.11C1.08,30.09,0.52,31.86,0.18,33.74z"/>
		</g>
		<g>
			
				<radialGradient id="SVGID_2_" cx="110.955" cy="13.5758" r="64.0854" gradientTransform="matrix(0.998 -0.0637 0.0637 0.998 12.1348 33.1503)" gradientUnits="userSpaceOnUse">
				<stop  offset="0" style="stop-color:#C2C2C2"/>
				<stop  offset="1" style="stop-color:#3B3B3B"/>
			</radialGradient>
			<path class="st1" d="M204.29,60.79c1.34-11.23-4.76-23.13-13.58-31.22c-1.54-1.33-3.15-2.55-4.83-3.63
				c-1.68-1.08-3.41-2.01-5.18-2.79c-2.01-0.97-4.11-1.81-6.28-2.48c-6.19-1.91-12.18-2.25-17.51-1.29c-1.77,0.32-3.47,0.8-5.08,1.4
				c0.9-0.07,2.34-0.03,4.05,0.1c1.7,0.14,3.68,0.35,5.66,0.65c1.99,0.29,3.98,0.65,5.71,1.05c1.74,0.41,3.23,0.87,4.19,1.36
				c2,0.99,3.96,2.15,5.8,3.44c12.11,7.37,18.82,23.88,9.27,33.87c-1.47,1.6-3.17,2.79-5.03,3.63
				c-17.17,6.57-33.81-10.22-47.35-21.42c-1.76-1.48-3.49-2.98-5.22-4.5C116.83,28.4,105.37,17.35,91.95,9.35
				c-2.12-1.18-4.27-2.29-6.45-3.31C72.45-0.07,58.61-2.77,47.02,3.86c-2.07,1.13-4.14,2.48-4.97,3.77c1.6-0.46,6.12-2.54,7.52-2.82
				c12.94-2.22,23.47,2.36,35.45,9.75c1.99,1.24,3.96,2.55,5.9,3.92c10.46,8.06,20.19,18.63,30.28,28.42
				c1.81,1.76,3.46,3.94,4.93,5.42c15.83,15.83,38.27,31.25,60.39,26.52c1.77-0.39,3.47-0.94,5.07-1.64
				c4.8-2.13,8.75-5.74,11.07-11.12C203.39,64.44,203.94,62.67,204.29,60.79z"/>
		</g>
	</g>
	<g>
		<g>
			<path class="st2" d="M235.12,37.66c0,7.66,0.12,10.78,1.1,11.7c0.86,0.85,2.94,1.23,7.17,1.23c2.82,0,5.21-0.07,6.5-1.6
				c0.67-0.8,1.11-1.9,1.29-2.94c0.06-0.36,0.24-0.68,0.55-0.68c0.25,0,0.37,0.24,0.37,0.8c0,0.55-0.37,3.67-0.8,5.2
				c-0.37,1.23-0.55,1.41-3.43,1.41c-3.87,0-6.86-0.07-9.37-0.18c-2.45-0.07-4.29-0.13-5.88-0.13c-0.25,0-1.16,0-2.21,0.05
				c-1.1,0.07-2.27,0.13-3.12,0.13c-0.55,0-0.86-0.13-0.86-0.42c0-0.19,0.12-0.43,0.43-0.43c0.49,0,1.16-0.12,1.65-0.24
				c1.04-0.24,1.16-1.22,1.41-2.76c0.31-2.14,0.31-6.24,0.31-11.27v-9.19c0-8.08,0-9.56-0.12-11.21c-0.13-1.78-0.43-2.64-2.2-2.88
				c-0.43-0.06-1.35-0.13-1.83-0.13c-0.18,0-0.43-0.24-0.43-0.43c0-0.31,0.25-0.42,0.85-0.42c2.45,0,5.82,0.11,6.13,0.11
				c0.25,0,4.28-0.11,5.94-0.11c0.55,0,0.86,0.11,0.86,0.42c0,0.19-0.24,0.37-0.43,0.37c-0.36,0-1.16,0.06-1.78,0.13
				c-1.59,0.3-1.89,1.11-2.02,2.94c-0.06,1.65-0.06,3.12-0.06,11.21V37.66z"/>
			<path class="st2" d="M267.89,37.54c0,5.03,0,9.12,0.25,11.27c0.18,1.53,0.37,2.51,1.95,2.76c0.8,0.12,1.97,0.24,2.45,0.24
				c0.31,0,0.43,0.24,0.43,0.43c0,0.24-0.25,0.42-0.86,0.42c-3.01,0-6.49-0.18-6.74-0.18c-0.31,0-3.68,0.18-5.33,0.18
				c-0.55,0-0.86-0.13-0.86-0.42c0-0.19,0.13-0.43,0.44-0.43c0.49,0,1.16-0.12,1.65-0.24c1.04-0.24,1.22-1.22,1.41-2.76
				c0.24-2.14,0.3-6.24,0.3-11.27v-9.19c0-8.08,0-9.56-0.12-11.21c-0.12-1.78-0.55-2.57-1.72-2.82c-0.62-0.12-1.29-0.19-1.65-0.19
				c-0.25,0-0.43-0.24-0.43-0.43c0-0.31,0.25-0.42,0.86-0.42c1.78,0,5.15,0.11,5.45,0.11c0.24,0,3.73-0.11,5.39-0.11
				c0.61,0,0.86,0.11,0.86,0.42c0,0.19-0.25,0.43-0.43,0.43c-0.36,0-0.74,0-1.35,0.13c-1.47,0.31-1.78,1.05-1.9,2.88
				c-0.06,1.65-0.06,3.12-0.06,11.21V37.54z"/>
			<path class="st2" d="M298.64,45.87c3.12-6.98,10.17-24.75,11.33-28.49c0.25-0.79,0.49-1.53,0.49-1.95c0-0.43-0.18-0.93-0.74-1.11
				c-0.62-0.19-1.22-0.19-1.83-0.19c-0.31,0-0.62-0.18-0.62-0.43c0-0.31,0.37-0.42,1.23-0.42c2.14,0,4.59,0.11,5.27,0.11
				c0.31,0,2.63-0.11,4.22-0.11c0.55,0,0.86,0.11,0.86,0.36c0,0.25-0.19,0.49-0.62,0.49c-0.36,0-1.59,0-2.58,0.62
				c-0.73,0.49-1.59,1.22-3,4.77c-0.62,1.47-3.25,7.72-6,14.09c-3.31,7.6-5.7,13.23-6.92,15.79c-1.47,3.12-1.78,3.93-2.33,3.93
				c-0.61,0-0.98-0.68-2.02-3.18l-13.23-31.91c-1.22-2.94-1.96-3.49-3.74-3.92c-0.86-0.19-1.78-0.19-2.08-0.19
				c-0.31,0-0.43-0.3-0.43-0.49c0-0.3,0.55-0.36,1.41-0.36c2.57,0,5.63,0.11,6.31,0.11c0.55,0,2.94-0.11,5.02-0.11
				c0.98,0,1.47,0.11,1.47,0.36c0,0.25-0.18,0.49-0.55,0.49c-0.61,0-1.47,0.07-1.96,0.25c-0.55,0.24-0.61,0.55-0.61,0.92
				c0,0.67,0.67,2.26,1.47,4.34L298.64,45.87z"/>
			<path class="st2" d="M351.86,39.39c0-4.23-0.12-4.84-2.33-5.28c-0.43-0.06-1.35-0.13-1.83-0.13c-0.18,0-0.43-0.24-0.43-0.43
				c0-0.37,0.24-0.42,0.86-0.42c2.45,0,6.07,0.12,6.37,0.12c0.24,0,3.61-0.12,5.27-0.12c0.62,0,0.86,0.05,0.86,0.42
				c0,0.18-0.25,0.43-0.43,0.43c-0.36,0-0.73,0-1.35,0.13c-1.47,0.24-1.9,1.05-2.02,2.88c-0.07,1.65-0.07,3.18-0.07,5.39v5.82
				c0,2.4-0.07,2.45-0.73,2.81c-3.43,1.78-8.33,2.33-11.46,2.33c-4.1,0-11.76-0.49-17.76-5.57c-3.31-2.76-6.43-8.33-6.43-14.82
				c0-8.34,4.22-14.21,9-17.1c4.84-2.94,10.24-3.31,14.34-3.31c3.43,0,7.23,0.62,8.26,0.85c1.11,0.25,3.01,0.56,4.36,0.56
				c0.55,0,0.67,0.24,0.67,0.48c0,0.74-0.31,2.15-0.31,7.35c0,0.87-0.24,1.11-0.61,1.11c-0.31,0-0.36-0.3-0.36-0.8
				c-0.06-0.67-0.37-2.2-1.23-3.43c-1.35-1.96-5.45-4.04-12.44-4.04c-3.25,0-7.16,0.24-11.27,3.37c-3.12,2.39-5.33,7.04-5.33,13.11
				c0,7.35,3.8,12.62,5.7,14.4c4.28,3.98,8.82,5.45,13.78,5.45c1.9,0,4.41-0.18,5.82-0.98c0.68-0.37,1.11-0.61,1.11-1.59V39.39z"/>
			<path class="st2" d="M381.2,14.33c0.67-1.72,0.92-2.03,1.29-2.03c0.54,0,0.73,0.74,1.29,1.9c0.98,2.2,9.62,23.71,12.92,31.61
				c1.96,4.66,3.43,5.32,4.6,5.7c0.8,0.24,1.59,0.3,2.14,0.3c0.3,0,0.67,0.12,0.67,0.43c0,0.29-0.62,0.42-1.22,0.42
				c-0.8,0-4.79,0-8.52-0.13c-1.03-0.05-1.9-0.05-1.9-0.36c0-0.24,0.13-0.24,0.37-0.37c0.31-0.12,0.86-0.55,0.5-1.41l-4.85-11.95
				c-0.12-0.25-0.18-0.31-0.49-0.31h-12.43c-0.25,0-0.43,0.13-0.55,0.44l-3.07,8.33c-0.49,1.29-0.8,2.58-0.8,3.49
				c0,1.05,0.92,1.41,1.83,1.41h0.49c0.43,0,0.56,0.18,0.56,0.43c0,0.29-0.31,0.42-0.8,0.42c-1.29,0-4.22-0.18-4.84-0.18
				c-0.55,0-3.25,0.18-5.45,0.18c-0.67,0-1.04-0.13-1.04-0.42c0-0.25,0.24-0.43,0.49-0.43c0.36,0,1.16-0.06,1.6-0.12
				c2.45-0.31,3.49-2.14,4.53-4.78L381.2,14.33z M387.21,36.01c0.24,0,0.24-0.12,0.18-0.37l-5.34-14.27c-0.3-0.8-0.6-0.8-0.91,0
				l-5.03,14.27c-0.06,0.24,0,0.37,0.18,0.37H387.21z"/>
			<path class="st2" d="M411.22,28.35c0-8.08,0-9.56-0.13-11.21c-0.12-1.78-0.43-2.64-2.2-2.88c-0.43-0.06-1.35-0.13-1.84-0.13
				c-0.19,0-0.43-0.24-0.43-0.43c0-0.31,0.24-0.42,0.85-0.42c2.45,0,6.07,0.11,6.38,0.11c0.55,0,5.08-0.11,6.74-0.11
				c3.43,0,7.22,0.3,10.04,2.26c1.35,0.99,3.74,3.5,3.74,7.12c0,3.85-1.59,7.59-6.61,11.88c4.41,5.51,8.14,10.22,11.26,13.47
				c2.89,2.94,4.66,3.43,6.01,3.61c1.05,0.18,1.59,0.18,1.9,0.18c0.3,0,0.49,0.24,0.49,0.43c0,0.29-0.31,0.42-1.29,0.42h-3.37
				c-3.07,0-4.41-0.3-5.76-1.04c-2.33-1.22-4.29-3.74-7.34-7.66c-2.27-2.81-4.66-6.18-5.83-7.59c-0.24-0.25-0.36-0.31-0.73-0.31
				l-6.86-0.12c-0.24,0-0.37,0.12-0.37,0.43v1.22c0,5.02,0,9.06,0.24,11.21c0.18,1.53,0.49,2.51,2.14,2.76
				c0.74,0.12,1.91,0.24,2.39,0.24c0.37,0,0.43,0.24,0.43,0.43c0,0.24-0.25,0.42-0.86,0.42c-2.95,0-6.37-0.18-6.62-0.18
				c-0.06,0-3.67,0.18-5.33,0.18c-0.55,0-0.85-0.13-0.85-0.42c0-0.19,0.12-0.43,0.42-0.43c0.49,0,1.16-0.12,1.65-0.24
				c1.05-0.24,1.16-1.22,1.41-2.76c0.31-2.14,0.31-6.24,0.31-11.27V28.35z M415.87,32.77c0,0.29,0.13,0.49,0.37,0.67
				c0.8,0.43,3.56,0.8,5.94,0.8c1.29,0,2.76-0.07,4.05-0.93c1.83-1.22,3.24-3.98,3.24-7.96c0-6.5-3.55-10.23-9.31-10.23
				c-1.6,0-3.31,0.18-3.87,0.31c-0.24,0.11-0.42,0.29-0.42,0.6V32.77z"/>
			<path class="st2" d="M452.38,28.35c0-8.08,0-9.56-0.12-11.21c-0.12-1.78-0.43-2.64-2.2-2.88c-0.43-0.06-1.35-0.13-1.84-0.13
				c-0.18,0-0.43-0.24-0.43-0.43c0-0.31,0.24-0.42,0.86-0.42c2.44,0,5.94,0.11,6.24,0.11c0.62,0,4.05-0.11,7.23-0.11
				c5.38,0,15.24-0.5,21.62,5.93c2.69,2.7,5.26,7.04,5.26,13.23c0,6.56-2.81,11.58-5.82,14.64c-2.33,2.4-7.17,6.01-16.35,6.01
				c-2.33,0-5.21-0.18-7.54-0.31c-2.33-0.18-4.17-0.3-4.41-0.3c-0.12,0-1.1,0.05-2.2,0.05c-1.11,0.07-2.4,0.13-3.26,0.13
				c-0.54,0-0.85-0.13-0.85-0.42c0-0.19,0.12-0.43,0.43-0.43c0.49,0,1.16-0.12,1.65-0.24c1.04-0.24,1.16-1.22,1.41-2.76
				c0.31-2.14,0.31-6.24,0.31-11.27V28.35z M457.28,33.98c0,5.51,0,10.36,0.06,11.33c0.06,1.29,0.18,3.18,0.62,3.74
				c0.67,0.98,2.57,2.08,8.94,2.08c4.96,0,9.37-1.64,12.62-4.71c2.81-2.64,4.23-7.6,4.23-12.37c0-6.62-2.88-10.84-5.09-13.05
				c-5.08-5.14-11.02-5.81-17.46-5.81c-1.04,0-2.75,0.18-3.24,0.36c-0.49,0.18-0.67,0.43-0.67,1.05V33.98z"/>
			<path class="st2" d="M514.61,43.23c0-5.31,3.41-8.84,6.95-10.93c-1.68-2.36-2.23-4.22-2.23-6.26c0-3.59,3.68-8.35,9.76-8.35
				c2.31,0,4.26,0.46,5.49,1.14c0.54,0.32,0.59,0.59,0.59,1.13c0,1.36-0.18,4.54-0.31,5.22c-0.14,0.69-0.28,0.77-0.45,0.77
				c-0.24,0-0.27-0.18-0.27-0.86c0-1.18-0.28-2.68-1.41-3.86c-1-1.05-2.54-2-4.54-2c-2.72,0-5.76,1.69-5.76,5.95
				c0,3.53,2.45,6.48,7.17,11.61c1.55,1.69,7.12,6.9,8.57,8.13c1.28-1.72,2.32-4.77,2.32-7.54c0-0.67-0.18-1.53-0.86-2.22
				c-0.59-0.59-1.54-0.73-2.22-0.73c-0.27,0-0.54-0.09-0.54-0.32c0-0.22,0.36-0.32,0.73-0.32c1.09,0,2.9,0.04,5.44,0.32
				c0.68,0.1,0.82,0.46,0.82,0.91c0,3.68-2.49,8.26-4.49,10.71c2.99,2.54,4.99,3.77,6.26,4.49c1.45,0.86,3.77,1.77,5.4,1.77
				c0.41,0,0.63,0.05,0.63,0.32c0,0.18-0.37,0.31-0.77,0.31h-4.45c-3.36,0-4.45-0.31-9.43-4.27c-1.05,1.05-4.63,4.91-11.35,4.91
				C517.7,53.26,514.61,47.17,514.61,43.23z M535.8,47.5c-2.55-2.09-7.03-6.4-8.21-7.67c-1.18-1.27-4.09-4.5-5.35-6.34
				c-2.36,1.53-4.09,3.99-4.09,7.62c0,5.67,3.99,9.75,9.08,9.75C531.44,50.85,534.26,49.08,535.8,47.5z"/>
			<path class="st2" d="M581.81,37.66c0,7.66,0.12,10.78,1.1,11.7c0.86,0.85,2.94,1.23,7.17,1.23c2.82,0,5.21-0.07,6.49-1.6
				c0.67-0.8,1.11-1.9,1.29-2.94c0.05-0.36,0.24-0.68,0.55-0.68c0.25,0,0.37,0.24,0.37,0.8c0,0.55-0.37,3.67-0.8,5.2
				c-0.37,1.23-0.55,1.41-3.42,1.41c-3.86,0-6.86-0.07-9.37-0.18c-2.45-0.07-4.29-0.13-5.88-0.13c-0.24,0-1.16,0-2.2,0.05
				c-1.11,0.07-2.27,0.13-3.12,0.13c-0.56,0-0.86-0.13-0.86-0.42c0-0.19,0.12-0.43,0.43-0.43c0.49,0,1.17-0.12,1.65-0.24
				c1.05-0.24,1.16-1.22,1.41-2.76c0.31-2.14,0.31-6.24,0.31-11.27v-9.19c0-8.08,0-9.56-0.13-11.21c-0.12-1.78-0.43-2.64-2.2-2.88
				c-0.43-0.06-1.35-0.13-1.84-0.13c-0.18,0-0.43-0.24-0.43-0.43c0-0.31,0.25-0.42,0.86-0.42c2.45,0,5.81,0.11,6.12,0.11
				c0.25,0,4.29-0.11,5.94-0.11c0.54,0,0.86,0.11,0.86,0.42c0,0.19-0.25,0.37-0.43,0.37c-0.36,0-1.16,0.06-1.78,0.13
				c-1.59,0.3-1.9,1.11-2.02,2.94c-0.06,1.65-0.06,3.12-0.06,11.21V37.66z"/>
			<path class="st2" d="M614.57,37.66c0,7.66,0.12,10.78,1.1,11.7c0.86,0.85,2.94,1.23,7.17,1.23c2.82,0,5.21-0.07,6.49-1.6
				c0.67-0.8,1.11-1.9,1.29-2.94c0.06-0.36,0.25-0.68,0.55-0.68c0.25,0,0.38,0.24,0.38,0.8c0,0.55-0.38,3.67-0.81,5.2
				c-0.36,1.23-0.55,1.41-3.42,1.41c-3.86,0-6.86-0.07-9.37-0.18c-2.45-0.07-4.29-0.13-5.88-0.13c-0.24,0-1.17,0-2.21,0.05
				c-1.1,0.07-2.27,0.13-3.12,0.13c-0.54,0-0.85-0.13-0.85-0.42c0-0.19,0.12-0.43,0.43-0.43c0.49,0,1.16-0.12,1.65-0.24
				c1.04-0.24,1.16-1.22,1.4-2.76c0.31-2.14,0.31-6.24,0.31-11.27v-9.19c0-8.08,0-9.56-0.12-11.21c-0.12-1.78-0.43-2.64-2.2-2.88
				c-0.43-0.06-1.35-0.13-1.84-0.13c-0.18,0-0.43-0.24-0.43-0.43c0-0.31,0.25-0.42,0.86-0.42c2.45,0,5.81,0.11,6.12,0.11
				c0.24,0,4.29-0.11,5.94-0.11c0.55,0,0.86,0.11,0.86,0.42c0,0.19-0.25,0.37-0.43,0.37c-0.36,0-1.16,0.06-1.78,0.13
				c-1.6,0.3-1.91,1.11-2.02,2.94c-0.07,1.65-0.07,3.12-0.07,11.21V37.66z"/>
			<path class="st2" d="M656.34,12.55c12.14,0,21.32,7.41,21.32,19.54c0,11.64-8.64,21.25-21.62,21.25
				c-14.77,0-21.07-11.09-21.07-20.46C634.97,24.5,641.47,12.55,656.34,12.55z M657.58,51.2c4.84,0,14.57-2.56,14.57-17.64
				c0-12.49-7.59-19.05-16.1-19.05c-9.01,0-15.5,5.64-15.5,16.96C640.55,43.61,647.83,51.2,657.58,51.2z"/>
			<path class="st2" d="M696.17,39.13c0-2.82-0.38-3.86-1.16-5.33c-0.44-0.8-7.72-12.37-9.56-15.14c-1.29-1.96-2.57-3.12-3.56-3.8
				c-0.79-0.49-1.83-0.74-2.25-0.74c-0.31,0-0.56-0.24-0.56-0.49c0-0.25,0.19-0.36,0.67-0.36c1.04,0,5.1,0.11,5.33,0.11
				c0.36,0,2.57-0.11,4.65-0.11c0.6,0,0.73,0.11,0.73,0.36c0,0.18-0.36,0.36-0.85,0.55c-0.42,0.18-0.67,0.43-0.67,0.85
				c0,0.73,0.37,1.34,0.74,2.03l9.8,16.23c1.11-2.2,7.83-13.35,8.82-15.06c0.68-1.16,0.92-2.03,0.92-2.7c0-0.73-0.24-1.16-0.86-1.34
				c-0.49-0.13-0.8-0.37-0.8-0.62c0-0.18,0.31-0.3,0.86-0.3c1.4,0,3.31,0.11,3.74,0.11c0.37,0,4.22-0.11,5.27-0.11
				c0.37,0,0.67,0.11,0.67,0.3c0,0.25-0.25,0.55-0.67,0.55c-0.62,0-1.65,0.19-2.51,0.68c-1.05,0.62-1.54,1.16-2.7,2.56
				c-1.78,2.09-9.37,14.34-10.47,16.54c-0.92,1.83-0.68,3.49-0.68,5.21v4.47c0,0.85,0,3.06,0.19,5.2c0.12,1.53,0.49,2.51,2.07,2.76
				c0.74,0.12,1.96,0.24,2.45,0.24c0.31,0,0.43,0.24,0.43,0.43c0,0.24-0.31,0.42-0.85,0.42c-3.01,0-6.5-0.18-6.81-0.18
				c-0.24,0-3.67,0.18-5.26,0.18c-0.61,0-0.86-0.13-0.86-0.42c0-0.19,0.12-0.43,0.43-0.43c0.49,0,1.1-0.12,1.59-0.24
				c1.09-0.24,1.46-1.22,1.58-2.76c0.13-2.14,0.13-4.35,0.13-5.2V39.13z"/>
			<path class="st2" d="M725.32,28.35c0-8.08,0-9.56-0.13-11.21c-0.11-1.78-0.42-2.64-2.2-2.88c-0.43-0.06-1.35-0.13-1.84-0.13
				c-0.18,0-0.43-0.24-0.43-0.43c0-0.31,0.25-0.42,0.86-0.42c2.45,0,5.94,0.11,6.25,0.11c0.61,0,4.04-0.11,7.22-0.11
				c5.39,0,15.25-0.5,21.64,5.93c2.69,2.7,5.25,7.04,5.25,13.23c0,6.56-2.82,11.58-5.82,14.64c-2.32,2.4-7.17,6.01-16.35,6.01
				c-2.33,0-5.22-0.18-7.54-0.31c-2.33-0.18-4.16-0.3-4.41-0.3c-0.12,0-1.11,0.05-2.21,0.05c-1.11,0.07-2.39,0.13-3.25,0.13
				c-0.54,0-0.86-0.13-0.86-0.42c0-0.19,0.12-0.43,0.42-0.43c0.49,0,1.17-0.12,1.66-0.24c1.04-0.24,1.16-1.22,1.4-2.76
				c0.31-2.14,0.31-6.24,0.31-11.27V28.35z M730.22,33.98c0,5.51,0,10.36,0.06,11.33c0.07,1.29,0.19,3.18,0.61,3.74
				c0.67,0.98,2.58,2.08,8.94,2.08c4.96,0,9.37-1.64,12.62-4.71c2.81-2.64,4.23-7.6,4.23-12.37c0-6.62-2.89-10.84-5.09-13.05
				c-5.08-5.14-11.02-5.81-17.46-5.81c-1.05,0-2.76,0.18-3.25,0.36c-0.49,0.18-0.67,0.43-0.67,1.05V33.98z"/>
		</g>
		<g>
			<g>
				<g>
					<path class="st3" d="M382.04,82.95c0,2.98,0.08,4.27,0.44,4.64c0.33,0.32,0.86,0.46,2.44,0.46c1.08,0,1.97-0.02,2.45-0.6
						c0.27-0.32,0.47-0.83,0.53-1.22c0.02-0.16,0.06-0.26,0.18-0.26c0.1,0,0.11,0.07,0.11,0.3c0,0.22-0.14,1.44-0.3,2.03
						c-0.14,0.46-0.21,0.55-1.28,0.55c-1.46,0-2.51-0.04-3.36-0.06c-0.86-0.04-1.49-0.05-2.07-0.05c-0.08,0-0.42,0.01-0.83,0.01
						c-0.41,0.01-0.85,0.04-1.15,0.04c-0.22,0-0.32-0.04-0.32-0.16c0-0.06,0.04-0.13,0.16-0.13c0.18,0,0.42-0.03,0.61-0.08
						c0.4-0.08,0.5-0.52,0.59-1.11c0.1-0.86,0.1-2.46,0.1-4.41v-3.57c0-3.16,0-3.72-0.04-4.37c-0.04-0.69-0.21-1.02-0.87-1.16
						c-0.17-0.03-0.51-0.06-0.69-0.06c-0.08,0-0.16-0.04-0.16-0.13c0-0.12,0.1-0.15,0.32-0.15c0.91,0,2.19,0.06,2.29,0.06
						c0.1,0,1.58-0.06,2.2-0.06c0.22,0,0.32,0.04,0.32,0.15c0,0.09-0.08,0.13-0.16,0.13c-0.14,0-0.42,0.03-0.67,0.06
						c-0.59,0.1-0.76,0.45-0.8,1.16c-0.04,0.65-0.04,1.21-0.04,4.37V82.95z"/>
					<path class="st3" d="M417.75,73.97c0.25-0.68,0.32-0.79,0.45-0.79c0.12,0,0.21,0.09,0.44,0.71c0.3,0.79,3.49,9.15,4.72,12.24
						c0.73,1.81,1.32,2.12,1.75,2.25c0.31,0.1,0.61,0.12,0.81,0.12c0.11,0,0.2,0.03,0.2,0.13c0,0.12-0.18,0.16-0.41,0.16
						c-0.3,0-1.78,0-3.19-0.04c-0.38-0.01-0.6-0.01-0.6-0.14c0-0.08,0.06-0.13,0.14-0.14c0.12-0.05,0.25-0.23,0.12-0.55l-1.89-5
						c-0.04-0.07-0.08-0.11-0.18-0.11h-4.36c-0.1,0-0.16,0.05-0.2,0.15l-1.22,3.59c-0.18,0.51-0.29,1-0.29,1.36
						c0,0.41,0.43,0.58,0.77,0.58h0.21c0.14,0,0.2,0.04,0.2,0.13c0,0.12-0.12,0.16-0.31,0.16c-0.48,0-1.35-0.05-1.57-0.05
						c-0.22,0-1.34,0.05-2.3,0.05c-0.26,0-0.38-0.04-0.38-0.16c0-0.08,0.08-0.13,0.18-0.13c0.14,0,0.42-0.02,0.58-0.03
						c0.94-0.13,1.34-0.9,1.71-1.92L417.75,73.97z M419.86,82.07c0.1,0,0.1-0.06,0.09-0.14l-1.93-5.48c-0.1-0.3-0.2-0.3-0.31,0
						l-1.78,5.48c-0.04,0.1,0,0.14,0.05,0.14H419.86z"/>
					<path class="st3" d="M462.98,85.99h0.08c0.54-1.86,2.42-7.75,3.12-10.33c0.21-0.76,0.23-1.04,0.23-1.31
						c0-0.35-0.23-0.6-1.15-0.6c-0.1,0-0.18-0.05-0.18-0.14c0-0.1,0.1-0.14,0.35-0.14c1.03,0,1.88,0.06,2.06,0.06
						c0.15,0,1.01-0.06,1.64-0.06c0.18,0,0.28,0.04,0.28,0.12c0,0.11-0.06,0.16-0.18,0.16c-0.09,0-0.46,0.03-0.69,0.1
						c-0.61,0.23-0.93,1.08-1.31,2.2c-0.9,2.57-2.95,9.02-3.74,11.29c-0.53,1.5-0.63,1.75-0.85,1.75c-0.2,0-0.32-0.27-0.61-1.05
						l-3.97-11.28h-0.04c-0.73,1.96-3.5,9.37-4.24,11.26c-0.32,0.85-0.42,1.08-0.66,1.08c-0.21,0-0.31-0.23-0.72-1.61l-3.62-12.03
						c-0.32-1.07-0.58-1.38-1.11-1.58c-0.26-0.1-0.78-0.12-0.92-0.12c-0.1,0-0.18-0.02-0.18-0.14c0-0.1,0.12-0.14,0.32-0.14
						c1.06,0,2.17,0.06,2.4,0.06c0.18,0,1.08-0.06,2.08-0.06c0.28,0,0.37,0.06,0.37,0.14c0,0.12-0.1,0.14-0.2,0.14
						c-0.17,0-0.55,0-0.8,0.12c-0.12,0.06-0.25,0.23-0.25,0.48c0,0.27,0.18,0.98,0.38,1.86c0.31,1.3,2.42,8.75,2.72,9.82h0.04
						l4.3-11.56c0.3-0.83,0.39-0.93,0.5-0.93c0.14,0,0.26,0.26,0.52,0.96L462.98,85.99z"/>
					<path class="st3" d="M497.45,83.54c0-1.1-0.2-1.55-0.46-2.14c-0.14-0.32-2.86-4.77-3.57-5.83c-0.51-0.77-1.01-1.26-1.38-1.51
						c-0.31-0.2-0.69-0.32-0.88-0.32c-0.1,0-0.2-0.04-0.2-0.14c0-0.08,0.08-0.14,0.26-0.14c0.39,0,1.91,0.06,2.01,0.06
						c0.14,0,0.91-0.06,1.7-0.06c0.22,0,0.27,0.06,0.27,0.14c0,0.09-0.13,0.1-0.31,0.18c-0.16,0.08-0.26,0.21-0.26,0.37
						c0,0.24,0.11,0.48,0.26,0.79c0.32,0.58,3.36,5.81,3.73,6.4c0.38-0.85,2.96-5.29,3.37-5.96c0.27-0.42,0.35-0.77,0.35-1.04
						c0-0.28-0.08-0.51-0.32-0.56c-0.18-0.06-0.3-0.1-0.3-0.21c0-0.08,0.12-0.12,0.32-0.12c0.53,0,1.18,0.06,1.34,0.06
						c0.12,0,1.58-0.06,1.97-0.06c0.15,0,0.27,0.04,0.27,0.12c0,0.11-0.1,0.16-0.27,0.16c-0.22,0-0.61,0.09-0.94,0.29
						c-0.4,0.24-0.63,0.49-1.07,1.04c-0.67,0.8-3.51,5.57-3.88,6.44c-0.3,0.74-0.3,1.36-0.3,2.03v1.74c0,0.32,0,1.17,0.06,2.03
						c0.04,0.58,0.23,1.02,0.83,1.11c0.28,0.05,0.73,0.08,0.91,0.08c0.12,0,0.16,0.07,0.16,0.13c0,0.11-0.1,0.16-0.33,0.16
						c-1.11,0-2.39-0.05-2.49-0.05c-0.1,0-1.38,0.05-1.98,0.05c-0.23,0-0.32-0.04-0.32-0.16c0-0.06,0.04-0.13,0.16-0.13
						c0.18,0,0.42-0.03,0.61-0.08c0.4-0.08,0.59-0.52,0.63-1.11c0.06-0.86,0.06-1.71,0.06-2.03V83.54z"/>
					<path class="st3" d="M530.76,79.33c0-3.16,0-3.72-0.04-4.37c-0.04-0.69-0.2-1.02-0.87-1.16c-0.16-0.03-0.51-0.06-0.69-0.06
						c-0.08,0-0.17-0.04-0.17-0.13c0-0.12,0.1-0.15,0.32-0.15c0.47,0,1.02,0,1.46,0.01l0.83,0.04c0.14,0,4.18,0,4.65-0.02
						c0.38-0.02,0.71-0.05,0.87-0.1c0.1-0.02,0.18-0.1,0.28-0.1c0.06,0,0.08,0.08,0.08,0.18c0,0.14-0.1,0.39-0.16,0.96
						c-0.02,0.2-0.06,1.09-0.1,1.34c-0.02,0.1-0.05,0.22-0.14,0.22c-0.12,0-0.16-0.1-0.16-0.27c0-0.14-0.02-0.48-0.13-0.72
						c-0.14-0.32-0.34-0.57-1.44-0.69c-0.34-0.04-2.55-0.07-2.78-0.07c-0.08,0-0.12,0.07-0.12,0.21v5.59c0,0.14,0.03,0.21,0.12,0.21
						c0.27,0,2.76,0,3.22-0.04c0.49-0.04,0.78-0.09,0.95-0.29c0.14-0.17,0.22-0.26,0.31-0.26c0.06,0,0.1,0.04,0.1,0.16
						c0,0.12-0.1,0.46-0.17,1.13c-0.04,0.41-0.08,1.16-0.08,1.3c0,0.16,0,0.38-0.14,0.38c-0.1,0-0.14-0.09-0.14-0.18
						c0-0.2,0-0.4-0.08-0.66c-0.08-0.29-0.27-0.63-1.05-0.71c-0.54-0.06-2.56-0.1-2.9-0.1c-0.1,0-0.14,0.06-0.14,0.14v1.78
						c0,0.69-0.02,3.04,0,3.46c0.06,1.41,0.36,1.67,2.35,1.67c0.53,0,1.42,0,1.95-0.22c0.52-0.22,0.77-0.63,0.91-1.46
						c0.04-0.22,0.07-0.31,0.19-0.31c0.11,0,0.11,0.17,0.11,0.31c0,0.16-0.16,1.54-0.27,1.97c-0.14,0.52-0.3,0.52-1.09,0.52
						c-1.52,0-2.64-0.04-3.43-0.06c-0.79-0.04-1.27-0.05-1.58-0.05c-0.04,0-0.38,0-0.81,0.01c-0.4,0-0.86,0.04-1.18,0.04
						c-0.22,0-0.32-0.04-0.32-0.16c0-0.06,0.04-0.13,0.17-0.13c0.18,0,0.42-0.03,0.6-0.08c0.41-0.08,0.51-0.52,0.59-1.11
						c0.11-0.86,0.11-2.46,0.11-4.41V79.33z"/>
					<path class="st3" d="M565.42,79.33c0-3.16,0-3.72-0.04-4.37c-0.04-0.69-0.2-1.02-0.87-1.16c-0.17-0.03-0.51-0.06-0.69-0.06
						c-0.09,0-0.16-0.04-0.16-0.13c0-0.12,0.1-0.15,0.33-0.15c0.9,0,2.19,0.06,2.29,0.06c0.22,0,1.76-0.06,2.39-0.06
						c1.28,0,2.64,0.12,3.72,0.88c0.5,0.38,1.4,1.37,1.4,2.76c0,1.5-0.63,3-2.45,4.69c1.66,2.13,3.04,3.93,4.22,5.2
						c1.09,1.14,1.96,1.37,2.47,1.45c0.38,0.06,0.67,0.06,0.79,0.06c0.1,0,0.18,0.07,0.18,0.13c0,0.12-0.12,0.16-0.48,0.16h-1.44
						c-1.13,0-1.64-0.1-2.17-0.39c-0.87-0.46-1.59-1.45-2.74-2.98c-0.85-1.12-1.8-2.47-2.21-3c-0.08-0.08-0.14-0.12-0.26-0.12
						l-2.5-0.04c-0.1,0-0.15,0.06-0.15,0.16v0.49c0,1.95,0,3.54,0.1,4.41c0.06,0.58,0.18,1.02,0.8,1.11
						c0.28,0.05,0.72,0.08,0.91,0.08c0.12,0,0.17,0.07,0.17,0.13c0,0.11-0.1,0.16-0.32,0.16c-1.12,0-2.4-0.05-2.51-0.05
						c-0.01,0-1.29,0.05-1.9,0.05c-0.22,0-0.32-0.04-0.32-0.16c0-0.06,0.04-0.13,0.17-0.13c0.18,0,0.43-0.03,0.6-0.08
						c0.41-0.08,0.51-0.52,0.6-1.11c0.1-0.86,0.1-2.46,0.1-4.41V79.33z M567.04,81.1c0,0.1,0.05,0.18,0.15,0.24
						c0.3,0.18,1.24,0.32,2.13,0.32c0.49,0,1.05-0.06,1.52-0.38c0.71-0.49,1.24-1.58,1.24-3.12c0-2.54-1.34-4.05-3.51-4.05
						c-0.61,0-1.16,0.07-1.36,0.12c-0.1,0.04-0.16,0.11-0.16,0.24V81.1z"/>
					<path class="st3" d="M601.5,88.53c-0.28-0.15-0.31-0.23-0.31-0.77c0-1.02,0.08-1.83,0.1-2.16c0.02-0.22,0.06-0.32,0.16-0.32
						c0.12,0,0.14,0.06,0.14,0.22c0,0.19,0,0.47,0.06,0.76c0.31,1.5,1.64,2.06,3,2.06c1.95,0,2.9-1.4,2.9-2.7
						c0-1.4-0.59-2.21-2.33-3.65l-0.91-0.75c-2.15-1.77-2.63-3.02-2.63-4.4c0-2.17,1.62-3.65,4.2-3.65c0.79,0,1.37,0.07,1.88,0.19
						c0.39,0.09,0.55,0.1,0.71,0.1c0.16,0,0.2,0.04,0.2,0.14c0,0.11-0.08,0.77-0.08,2.16c0,0.32-0.04,0.46-0.14,0.46
						c-0.12,0-0.15-0.1-0.17-0.26c-0.02-0.26-0.14-0.8-0.26-1.02c-0.12-0.22-0.66-1.08-2.54-1.08c-1.4,0-2.49,0.87-2.49,2.35
						c0,1.15,0.53,1.89,2.48,3.4l0.56,0.45c2.39,1.89,2.96,3.14,2.96,4.76c0,0.84-0.32,2.37-1.72,3.37
						c-0.88,0.61-1.97,0.86-3.07,0.86C603.26,89.08,602.34,88.93,601.5,88.53z"/>
				</g>
			</g>
			<path class="st3" d="M353.68,80.15l0,0.97l0,0.98c0,0-140.85-0.2-125.24-0.8C244.72,80.69,353.68,80.15,353.68,80.15z"/>
			<path class="st3" d="M633.9,80.15v0.97v0.98c0,0,140.84-0.2,125.24-0.8C742.85,80.69,633.9,80.15,633.9,80.15z"/>
		</g>
	</g>
</g>
</svg>
