<?xml version="1.0" encoding="utf-8"?>
<!-- Generator: Adobe Illustrator 16.0.0, SVG Export Plug-In . SVG Version: 6.00 Build 0)  -->
<!DOCTYPE svg PUBLIC "-//W3C//DTD SVG 1.1//EN" "http://www.w3.org/Graphics/SVG/1.1/DTD/svg11.dtd">
<svg version="1.1" id="Layer_1" xmlns="http://www.w3.org/2000/svg" xmlns:xlink="http://www.w3.org/1999/xlink" x="0px" y="0px"
	 width="257.048px" height="61.459px" viewBox="0 0 257.048 61.459" enable-background="new 0 0 257.048 61.459"
	 xml:space="preserve">
<g>
	<defs>
		<rect id="SVGID_1_" width="257.048" height="61.459"/>
	</defs>
	<clipPath id="SVGID_2_">
		<use xlink:href="#SVGID_1_"  overflow="visible"/>
	</clipPath>
	<path clip-path="url(#SVGID_2_)" fill="#E87731" d="M25.574,40.555c-2.152-16.8,0.315-30.958,5.508-31.623
		c2.572-0.33,5.33,2.714,7.721,7.907C35.61,6.58,30.597-0.194,25.859,0.412c-6.473,0.83-9.977,15.12-7.825,31.92
		c1.819,14.202,7.097,25.647,12.597,28.348C28.423,55.474,26.582,48.423,25.574,40.555"/>
	<path clip-path="url(#SVGID_2_)" fill="none" stroke="#E87731" stroke-width="0.749" stroke-miterlimit="10" d="M25.574,40.555
		c-2.152-16.8,0.315-30.958,5.508-31.623c2.572-0.33,5.33,2.714,7.721,7.907C35.61,6.58,30.597-0.194,25.859,0.412
		c-6.473,0.83-9.977,15.12-7.825,31.92c1.819,14.202,7.097,25.647,12.597,28.348C28.423,55.474,26.582,48.423,25.574,40.555z"/>
	<path clip-path="url(#SVGID_2_)" fill="#E87731" d="M29.708,15.97c-14.24,0-26.065,5.935-28.443,13.742
		c3.581-6.035,12.552-10.317,23.061-10.317c13.658,0,24.729,7.228,24.729,16.145c0,5.156-3.708,9.744-9.472,12.7
		c11.091-2.322,19.012-8.445,19.012-15.636C58.594,23.417,45.661,15.97,29.708,15.97"/>
	<path clip-path="url(#SVGID_2_)" fill="none" stroke="#E87731" stroke-width="0.749" stroke-miterlimit="10" d="M29.708,15.97
		c-14.24,0-26.065,5.935-28.443,13.742c3.581-6.035,12.552-10.317,23.061-10.317c13.658,0,24.729,7.228,24.729,16.145
		c0,5.156-3.708,9.744-9.472,12.7c11.091-2.322,19.012-8.445,19.012-15.636C58.594,23.417,45.661,15.97,29.708,15.97z"/>
	<path clip-path="url(#SVGID_2_)" d="M68.239,14.116h11.484c7.703,0,11.579,3.588,11.579,10.095c0,6.842-4.354,10.431-11.197,10.431
		h-5.98v12.297h-5.886V14.116z M79.005,30.24c4.45,0,6.124-1.866,6.124-5.694c0-4.306-1.674-5.885-6.028-5.885h-4.976V30.24H79.005z
		"/>
	<path clip-path="url(#SVGID_2_)" d="M98.773,14.116h6.029l11.674,32.823H110.4l-2.967-8.325H95.232l-2.966,8.325h-5.455
		L98.773,14.116z M96.62,34.212h9.33l-4.593-13.11h-0.144L96.62,34.212z"/>
	<path clip-path="url(#SVGID_2_)" d="M119.25,14.116h11.005c7.56,0,11.435,3.205,11.435,9.617c0,4.593-2.248,7.033-5.933,8.469
		v0.239l8.134,14.498h-6.411l-7.32-13.254h-5.024v13.254h-5.885V14.116z M129.634,29.618c4.258,0,5.98-1.866,5.98-5.694
		c0-3.732-1.817-5.263-6.028-5.263h-4.45v10.957H129.634z"/>
	<path clip-path="url(#SVGID_2_)" d="M158.098,14.116h6.029l11.674,32.823h-6.076l-2.967-8.325h-12.201l-2.966,8.325h-5.455
		L158.098,14.116z M155.944,34.212h9.33l-4.593-13.11h-0.145L155.944,34.212z"/>
	<polygon clip-path="url(#SVGID_2_)" points="178.575,14.116 185.179,14.116 198.814,37.273 198.959,37.273 198.959,14.116 
		204.174,14.116 204.174,46.938 198.337,46.938 183.935,22.202 183.791,22.202 183.791,46.938 178.575,46.938 	"/>
	<polygon clip-path="url(#SVGID_2_)" points="208.483,14.116 228.962,14.116 228.962,18.757 214.369,18.757 214.369,27.752 
		225.709,27.752 225.709,32.346 214.369,32.346 214.369,42.298 229.25,42.298 229.25,46.938 208.483,46.938 	"/>
	<polygon clip-path="url(#SVGID_2_)" points="241.832,18.757 232.406,18.757 232.406,14.116 257.047,14.116 257.047,18.757 
		247.717,18.757 247.717,46.938 241.832,46.938 	"/>
</g>
</svg>
