<?xml version="1.0" encoding="utf-8"?>
<!-- Generator: Adobe Illustrator 24.3.0, SVG Export Plug-In . SVG Version: 6.00 Build 0)  -->
<svg version="1.1" id="Layer_1" xmlns="http://www.w3.org/2000/svg" xmlns:xlink="http://www.w3.org/1999/xlink" x="0px" y="0px"
	 viewBox="0 0 257 61.5" style="enable-background:new 0 0 257 61.5;" xml:space="preserve">
<style type="text/css">
	.st0{fill:#E87731;}
	.st1{fill:#FFFFFF;}
</style>
<g>
	<path class="st0" d="M39.1,16.5C35.7,5.7,30.6-0.6,25.8,0c-4.5,0.6-7.7,7.5-8.5,17.2C8.9,19.5,2.6,24,0.9,29.6l-0.9,3l1.6-2.7
		c2.7-4.5,8.5-8,15.5-9.4c-0.1,3.7,0.1,7.7,0.6,11.9c1.8,14,7.1,25.8,12.8,28.6l0.9,0.4L31,60.5c-2.3-5.4-4.1-12.5-5-20
		c-1-7.6-1-14.9-0.2-20.7c12.8,0.5,22.9,7.4,22.9,15.7c0,4.8-3.4,9.3-9.3,12.4l-2.5,1.3l2.7-0.6c11.5-2.4,19.3-8.8,19.3-16
		C59,25.1,50.6,18.8,39.1,16.5z M29.7,15.6c-1,0-2.1,0-3.1,0.1c1.1-3.9,2.7-6.2,4.5-6.4c2.2-0.3,4.7,2.3,7,7
		C35.5,15.9,32.6,15.6,29.7,15.6z"/>
</g>
<g>
	<path class="st1" d="M68.2,14.1h11.5c7.7,0,11.6,3.6,11.6,10.1c0,6.8-4.4,10.4-11.2,10.4h-6v12.3h-5.9V14.1z M79,30.2
		c4.4,0,6.1-1.9,6.1-5.7c0-4.3-1.7-5.9-6-5.9h-5v11.6H79z"/>
	<path class="st1" d="M98.8,14.1h6l11.7,32.8h-6.1l-3-8.3H95.2l-3,8.3h-5.5L98.8,14.1z M96.6,34.2h9.3l-4.6-13.1h-0.1L96.6,34.2z"/>
	<path class="st1" d="M119.2,14.1h11c7.6,0,11.4,3.2,11.4,9.6c0,4.6-2.2,7-5.9,8.5v0.2l8.1,14.5h-6.4l-7.3-13.3h-5v13.3h-5.9
		L119.2,14.1L119.2,14.1z M129.6,29.6c4.3,0,6-1.9,6-5.7c0-3.7-1.8-5.3-6-5.3h-4.4v11H129.6z"/>
	<path class="st1" d="M158.1,14.1h6l11.7,32.8h-6.1l-3-8.3h-12.2l-3,8.3h-5.5L158.1,14.1z M155.9,34.2h9.3l-4.6-13.1h-0.1
		L155.9,34.2z"/>
	<polygon class="st1" points="178.6,14.1 185.2,14.1 198.8,37.3 199,37.3 199,14.1 204.2,14.1 204.2,46.9 198.3,46.9 183.9,22.2 
		183.8,22.2 183.8,46.9 178.6,46.9 	"/>
	<polygon class="st1" points="208.5,14.1 229,14.1 229,18.8 214.4,18.8 214.4,27.8 225.7,27.8 225.7,32.3 214.4,32.3 214.4,42.3 
		229.2,42.3 229.2,46.9 208.5,46.9 	"/>
	<polygon class="st1" points="241.8,18.8 232.4,18.8 232.4,14.1 257,14.1 257,18.8 247.7,18.8 247.7,46.9 241.8,46.9 	"/>
</g>
</svg>
