<?xml version="1.0" encoding="utf-8"?>
<!-- Generator: Adobe Illustrator 24.2.0, SVG Export Plug-In . SVG Version: 6.00 Build 0)  -->
<svg version="1.1" id="Layer_1" xmlns="http://www.w3.org/2000/svg" xmlns:xlink="http://www.w3.org/1999/xlink" x="0px" y="0px"
	 viewBox="0 0 321.86 71.64" style="enable-background:new 0 0 321.86 71.64;" xml:space="preserve">
<style type="text/css">
	.st0{fill:#FFFFFF;}
</style>
<g>
	<rect width="167.16" height="71.64"/>
	<path class="st0" d="M12.68,50.5l4.68-6.41c2.68,2.56,5.93,4.43,9.61,4.43c4.28,0,7.13-1.87,7.13-5.24c0-3.85-2.25-6.22-11.78-6.22
		v-7.19c7.88,0,10.35-2.4,10.35-5.87c0-3.09-1.96-4.83-5.41-4.83c-3.12,0-5.48,1.41-8.2,3.83l-5.14-6.18
		c4.04-3.47,8.45-5.61,13.79-5.61c9.11,0,15.13,4.32,15.13,12.03c0,4.52-2.59,7.75-7.31,9.74v0.28c5.07,1.45,8.74,5.02,8.74,10.69
		c0,8.16-7.48,12.77-16.3,12.77C20.87,56.72,15.9,54.2,12.68,50.5z"/>
	<path class="st0" d="M50.19,50.07c11.16-10.55,19.02-18.04,19.02-24.32c0-4.24-2.35-6.58-6.21-6.58c-3.12,0-5.6,2.14-7.79,4.46
		l-5.5-5.48c4.31-4.61,8.41-6.95,14.68-6.95c8.64,0,14.54,5.52,14.54,13.97c0,7.38-6.9,15.25-14.07,22.68
		c2.26-0.25,5.31-0.5,7.34-0.5h8.83v8.53H50.19V50.07z"/>
	<path class="st0" d="M86.63,33.77c0-14.92,6.26-22.56,15.69-22.56S118,18.91,118,33.77c0,14.92-6.26,22.95-15.69,22.95
		S86.63,48.69,86.63,33.77z M108.4,33.77c0-11.96-2.66-14.71-6.08-14.71c-3.42,0-6.08,2.74-6.08,14.71s2.66,15.1,6.08,15.1
		C105.74,48.87,108.4,45.73,108.4,33.77z"/>
	<path class="st0" d="M123.08,33.77c0-14.92,6.26-22.56,15.69-22.56s15.69,7.69,15.69,22.56c0,14.92-6.26,22.95-15.69,22.95
		S123.08,48.69,123.08,33.77z M144.85,33.77c0-11.96-2.66-14.71-6.08-14.71c-3.42,0-6.08,2.74-6.08,14.71s2.66,15.1,6.08,15.1
		C142.19,48.87,144.85,45.73,144.85,33.77z"/>
	<path d="M175.05,50.34c0-3.62,2.61-6.4,6.13-6.4c3.52,0,6.13,2.79,6.13,6.4c0,3.59-2.61,6.38-6.13,6.38
		C177.65,56.72,175.05,53.93,175.05,50.34z"/>
	<path d="M199.64,10.89h15.46c9.9,0,17.89,3.54,17.89,14.48c0,10.58-8.08,15.26-17.61,15.26h-5.56v15.27h-10.17V10.89z
		 M214.77,32.54c5.59,0,8.24-2.49,8.24-7.18c0-4.71-3.01-6.4-8.52-6.4h-4.69v13.58H214.77z"/>
	<path d="M240.78,10.89h16.21c9.54,0,17.37,3.31,17.37,14.01c0,10.34-7.82,14.79-17.37,14.79h-6.03v16.2h-10.17V10.89z
		 M256.16,31.62c5.35,0,8.23-2.29,8.23-6.72c0-4.45-2.88-5.94-8.23-5.94h-5.21v12.65H256.16z M255.13,37.01l7.04-6.51l14.36,25.39
		h-11.38L255.13,37.01z"/>
	<path d="M280.98,33.19c0-14.7,8.3-23.13,20.44-23.13c12.14,0,20.44,8.49,20.44,23.13c0,14.7-8.3,23.52-20.44,23.52
		C289.28,56.72,280.98,47.9,280.98,33.19z M311.43,33.19c0-9.02-3.87-14.35-10.01-14.35c-6.14,0-10.01,5.33-10.01,14.35
		c0,9.02,3.87,14.74,10.01,14.74C307.56,47.93,311.43,42.22,311.43,33.19z"/>
</g>
</svg>
