<?xml version="1.0" encoding="utf-8"?>
<!-- Generator: Adobe Illustrator 24.2.1, SVG Export Plug-In . SVG Version: 6.00 Build 0)  -->
<svg version="1.1" id="Layer_1" xmlns="http://www.w3.org/2000/svg" xmlns:xlink="http://www.w3.org/1999/xlink" x="0px" y="0px"
	 viewBox="0 0 321.9 71.6" style="enable-background:new 0 0 321.9 71.6;" xml:space="preserve">
<style type="text/css">
	.st0{fill:#FFFFFF;}
	.st1{fill:#050505;}
</style>
<g>
	<rect class="st0" width="167.2" height="71.6"/>
	<path class="st1" d="M12.7,50.5l4.7-6.4c2.7,2.6,5.9,4.4,9.6,4.4c4.3,0,7.1-1.9,7.1-5.2c0-3.8-2.2-6.2-11.8-6.2v-7.2
		c7.9,0,10.4-2.4,10.4-5.9c0-3.1-2-4.8-5.4-4.8c-3.1,0-5.5,1.4-8.2,3.8l-5.1-6.2c4-3.5,8.5-5.6,13.8-5.6c9.1,0,15.1,4.3,15.1,12
		c0,4.5-2.6,7.8-7.3,9.7v0.3c5.1,1.5,8.7,5,8.7,10.7c0,8.2-7.5,12.8-16.3,12.8C20.9,56.7,15.9,54.2,12.7,50.5z"/>
	<path class="st1" d="M50.2,50.1c11.2-10.5,19-18,19-24.3c0-4.2-2.3-6.6-6.2-6.6c-3.1,0-5.6,2.1-7.8,4.5l-5.5-5.5
		c4.3-4.6,8.4-6.9,14.7-6.9c8.6,0,14.5,5.5,14.5,14c0,7.4-6.9,15.2-14.1,22.7c2.3-0.2,5.3-0.5,7.3-0.5H81v8.5H50.2V50.1z"/>
	<path class="st1" d="M86.6,33.8c0-14.9,6.3-22.6,15.7-22.6S118,18.9,118,33.8c0,14.9-6.3,23-15.7,23S86.6,48.7,86.6,33.8z
		 M108.4,33.8c0-12-2.7-14.7-6.1-14.7s-6.1,2.7-6.1,14.7s2.7,15.1,6.1,15.1C105.7,48.9,108.4,45.7,108.4,33.8z"/>
	<path class="st1" d="M123.1,33.8c0-14.9,6.3-22.6,15.7-22.6s15.7,7.7,15.7,22.6c0,14.9-6.3,23-15.7,23S123.1,48.7,123.1,33.8z
		 M144.9,33.8c0-12-2.7-14.7-6.1-14.7s-6.1,2.7-6.1,14.7s2.7,15.1,6.1,15.1C142.2,48.9,144.9,45.7,144.9,33.8z"/>
	<path class="st0" d="M175.1,50.3c0-3.6,2.6-6.4,6.1-6.4s6.1,2.8,6.1,6.4c0,3.6-2.6,6.4-6.1,6.4C177.6,56.7,175.1,53.9,175.1,50.3z"
		/>
	<path class="st0" d="M199.6,10.9h15.5c9.9,0,17.9,3.5,17.9,14.5c0,10.6-8.1,15.3-17.6,15.3h-5.6v15.3h-10.2L199.6,10.9L199.6,10.9z
		 M214.8,32.5c5.6,0,8.2-2.5,8.2-7.2c0-4.7-3-6.4-8.5-6.4h-4.7v13.6H214.8z"/>
	<path class="st0" d="M240.8,10.9H257c9.5,0,17.4,3.3,17.4,14c0,10.3-7.8,14.8-17.4,14.8h-6v16.2h-10.2L240.8,10.9L240.8,10.9z
		 M256.2,31.6c5.4,0,8.2-2.3,8.2-6.7c0-4.5-2.9-5.9-8.2-5.9h-5.2v12.6L256.2,31.6L256.2,31.6z M255.1,37l7-6.5l14.4,25.4h-11.4
		L255.1,37z"/>
	<path class="st0" d="M281,33.2c0-14.7,8.3-23.1,20.4-23.1s20.4,8.5,20.4,23.1c0,14.7-8.3,23.5-20.4,23.5
		C289.3,56.7,281,47.9,281,33.2z M311.4,33.2c0-9-3.9-14.4-10-14.4s-10,5.3-10,14.4s3.9,14.7,10,14.7S311.4,42.2,311.4,33.2z"/>
</g>
</svg>
