<?xml version="1.0" encoding="utf-8"?>
<!-- Generator: Adobe Illustrator 23.0.4, SVG Export Plug-In . SVG Version: 6.00 Build 0)  -->
<svg version="1.1" id="Layer_1" xmlns="http://www.w3.org/2000/svg" xmlns:xlink="http://www.w3.org/1999/xlink" x="0px" y="0px"
	 width="1157.3px" height="140.4px" viewBox="0 0 1157.3 140.4" style="enable-background:new 0 0 1157.3 140.4;"
	 xml:space="preserve">
<style type="text/css">
	.st0{fill:#FFFFFF;}
	.st1{fill:#C60E0A;}
	.st2{fill:none;stroke:#000000;stroke-width:4;stroke-miterlimit:10;}
</style>
<g>
	<g>
		<g>
			<g>
				<polygon points="608.3,124.3 608.3,120.3 1001.8,119.4 1001.8,95.6 1005.8,95.6 1005.8,123.4 1003.8,123.4 				"/>
			</g>
		</g>
	</g>
	<g>
		<g>
			<g>
				<g>
					<polygon points="1015.8,99.1 1003.8,78.4 991.8,99.1 					"/>
				</g>
			</g>
		</g>
	</g>
</g>
<g>
	<g>
		<g>
			<g>
				<polygon points="692.8,124.3 131.8,123.4 131.8,88.1 135.8,88.1 135.8,119.4 692.8,120.3 				"/>
			</g>
		</g>
	</g>
	<g>
		<g>
			<g>
				<g>
					<path class="st0" d="M124.8,88.6c0-5,4-9,9-9c5,0,9,4,9,9c0,5-4,9-9,9C128.8,97.6,124.8,93.6,124.8,88.6z"/>
				</g>
			</g>
		</g>
		<g>
			<g>
				<g>
					<path d="M123.6,88.6c0,5.6,4.6,10.2,10.2,10.2S144,94.2,144,88.6c0-5.6-4.6-10.2-10.2-10.2S123.6,83,123.6,88.6
						C123.6,94.2,123.6,83,123.6,88.6z M141.6,88.6c0,4.3-3.5,7.8-7.8,7.8c-4.3,0-7.8-3.5-7.8-7.8c0-4.3,3.5-7.8,7.8-7.8
						C138.1,80.8,141.6,84.3,141.6,88.6C141.6,92.9,141.6,84.3,141.6,88.6z"/>
				</g>
			</g>
		</g>
	</g>
</g>
<g>
	<g>
		<g>
			<path class="st1" d="M144.2,74.9l-2.4-9.2h-16l-2.5,9.2h-14.6l16.1-49.5h17.8l16.3,49.5H144.2z M139,54.8l-2.1-8.1
				c-0.5-1.8-1.1-4.1-1.8-7c-0.7-2.9-1.2-4.9-1.4-6.1c-0.2,1.1-0.6,3-1.2,5.7c-0.6,2.6-1.9,7.8-4,15.5H139z"/>
		</g>
	</g>
	<g>
		<g>
			<path d="M171.7,74.9h-9.2V40.5h20.4v7.5h-11.2v6.6H182V62h-10.3V74.9z"/>
		</g>
	</g>
	<g>
		<g>
			<path d="M197.7,74.9h-9.2V40.5h20.4v7.5h-11.2v6.6H208V62h-10.3V74.9z"/>
		</g>
	</g>
	<g>
		<g>
			<path d="M246.8,57.6c0,5.8-1.4,10.2-4.3,13.2c-2.8,3-7,4.5-12.5,4.5c-5.4,0-9.6-1.5-12.4-4.6c-2.9-3-4.3-7.5-4.3-13.3
				c0-5.7,1.4-10.1,4.3-13.1c2.9-3,7-4.5,12.5-4.5c5.5,0,9.6,1.5,12.5,4.5C245.4,47.4,246.8,51.8,246.8,57.6z M223.1,57.6
				c0,6.7,2.3,10,7,10c2.4,0,4.1-0.8,5.2-2.4c1.1-1.6,1.7-4.1,1.7-7.6c0-3.4-0.6-6-1.7-7.6c-1.2-1.6-2.9-2.5-5.2-2.5
				C225.4,47.6,223.1,50.9,223.1,57.6z"/>
		</g>
	</g>
	<g>
		<g>
			<path d="M262.4,62.4v12.5h-9.3V40.5h11.3c9.4,0,14.1,3.4,14.1,10.2c0,4-1.9,7.1-5.8,9.3l10,15h-10.6l-7.3-12.5H262.4z
				 M262.4,55.4h1.7c3.3,0,4.9-1.4,4.9-4.3c0-2.4-1.6-3.6-4.8-3.6h-1.8V55.4z"/>
		</g>
	</g>
	<g>
		<g>
			<path d="M315,57c0,5.8-1.6,10.2-4.8,13.3c-3.2,3.1-7.6,4.7-13.4,4.7h-11.2V40.5h11.9c5.5,0,9.8,1.4,12.8,4.2S315,51.6,315,57z
				 M305.4,57.3c0-3.2-0.6-5.5-1.9-7c-1.2-1.5-3.1-2.3-5.7-2.3h-2.7v19.3h2.1c2.8,0,4.9-0.8,6.2-2.5
				C304.7,63.2,305.4,60.7,305.4,57.3z"/>
		</g>
	</g>
	<g>
		<g>
			<path d="M342.4,74.9l-1.7-6.5h-11.2l-1.7,6.5h-10.2l11.2-34.6h12.4l11.4,34.6H342.4z M338.7,60.8l-1.5-5.7
				c-0.3-1.3-0.8-2.9-1.3-4.9c-0.5-2-0.8-3.4-1-4.3c-0.1,0.8-0.4,2.1-0.8,4c-0.4,1.8-1.3,5.5-2.8,10.9H338.7z"/>
		</g>
	</g>
	<g>
		<g>
			<path d="M356.3,40.5h12c4.7,0,8.2,0.7,10.4,2.1c2.3,1.4,3.4,3.6,3.4,6.5c0,1.9-0.5,3.6-1.5,5c-1,1.4-2.3,2.2-3.9,2.6v0.2
				c2.1,0.6,3.7,1.5,4.6,2.8s1.4,3,1.4,5.1c0,3.1-1.2,5.6-3.5,7.4c-2.4,1.8-5.6,2.7-9.6,2.7h-13.4V40.5z M365.6,53.7h2.8
				c1.3,0,2.4-0.3,3.1-0.8c0.7-0.6,1.1-1.4,1.1-2.5c0-1.9-1.5-2.9-4.4-2.9h-2.6V53.7z M365.6,60.5v7.2h3.3c2.9,0,4.4-1.2,4.4-3.7
				c0-1.1-0.4-2-1.2-2.6s-1.9-0.9-3.4-0.9H365.6z"/>
		</g>
	</g>
	<g>
		<g>
			<path d="M388.8,74.9V40.5h9.3v27h13.3v7.5H388.8z"/>
		</g>
	</g>
	<g>
		<g>
			<path d="M437.4,74.9h-20.5V40.5h20.5v7.5h-11.2v5.4h10.3v7.5h-10.3v6.5h11.2V74.9z"/>
		</g>
	</g>
	<g>
		<g>
			<path d="M487.2,74.9h-13.4V54.9h-15.5v20.1H445V25.7h13.4v18.3h15.5V25.7h13.4V74.9z"/>
		</g>
	</g>
	<g>
		<g>
			<path d="M528.6,57.6c0,5.8-1.4,10.2-4.3,13.2c-2.8,3-7,4.5-12.5,4.5c-5.4,0-9.6-1.5-12.4-4.6c-2.9-3-4.3-7.5-4.3-13.3
				c0-5.7,1.4-10.1,4.3-13.1c2.9-3,7-4.5,12.5-4.5c5.5,0,9.6,1.5,12.5,4.5C527.1,47.4,528.6,51.8,528.6,57.6z M504.8,57.6
				c0,6.7,2.3,10,7,10c2.4,0,4.1-0.8,5.2-2.4c1.1-1.6,1.7-4.1,1.7-7.6c0-3.4-0.6-6-1.7-7.6c-1.2-1.6-2.9-2.5-5.2-2.5
				C507.2,47.6,504.8,50.9,504.8,57.6z"/>
		</g>
	</g>
	<g>
		<g>
			<path d="M549.8,74.9l-7.1-24.8h-0.2c0.3,4.2,0.5,7.5,0.5,9.9v15h-8.3V40.5h12.4l7.2,24.5h0.2l7.1-24.5h12.4v34.5h-8.6V59.8
				c0-0.8,0-1.7,0-2.6c0-1,0.1-3.3,0.3-7.1h-0.2l-7,24.8H549.8z"/>
		</g>
	</g>
	<g>
		<g>
			<path d="M602,74.9h-20.5V40.5H602v7.5h-11.2v5.4h10.3v7.5h-10.3v6.5H602V74.9z"/>
		</g>
	</g>
	<g>
		<g>
			<path d="M609.6,74.9V25.7H623v49.3H609.6z"/>
		</g>
	</g>
	<g>
		<g>
			<path d="M647,74.9L640,50.1h-0.2c0.3,4.2,0.5,7.5,0.5,9.9v15H632V40.5h12.4l7.2,24.5h0.2l7.1-24.5h12.4v34.5h-8.6V59.8
				c0-0.8,0-1.7,0-2.6c0-1,0.1-3.3,0.3-7.1h-0.2l-7,24.8H647z"/>
		</g>
	</g>
	<g>
		<g>
			<path d="M703.7,51.4c0,3.9-1.1,6.8-3.4,8.9c-2.3,2.1-5.5,3.1-9.7,3.1H688v11.4h-9.3V40.5h11.9c4.4,0,7.6,1,9.8,2.9
				S703.7,47.9,703.7,51.4z M688,55.9h1.7c1.4,0,2.5-0.4,3.3-1.2s1.2-1.9,1.2-3.3c0-2.3-1.3-3.5-3.9-3.5H688V55.9z"/>
		</g>
	</g>
	<g>
		<g>
			<path d="M718.5,62.4v12.5h-9.3V40.5h11.3c9.4,0,14.1,3.4,14.1,10.2c0,4-2,7.1-5.8,9.3l10,15h-10.6l-7.3-12.5H718.5z M718.5,55.4
				h1.7c3.3,0,4.9-1.4,4.9-4.3c0-2.4-1.6-3.6-4.8-3.6h-1.8V55.4z"/>
		</g>
	</g>
	<g>
		<g>
			<path d="M774.2,57.6c0,5.8-1.4,10.2-4.3,13.2c-2.8,3-7,4.5-12.5,4.5c-5.4,0-9.6-1.5-12.4-4.6c-2.9-3-4.3-7.5-4.3-13.3
				c0-5.7,1.4-10.1,4.3-13.1c2.9-3,7-4.5,12.5-4.5c5.5,0,9.6,1.5,12.5,4.5C772.8,47.4,774.2,51.8,774.2,57.6z M750.5,57.6
				c0,6.7,2.3,10,7,10c2.4,0,4.1-0.8,5.2-2.4c1.1-1.6,1.7-4.1,1.7-7.6c0-3.4-0.6-6-1.7-7.6c-1.2-1.6-2.9-2.5-5.2-2.5
				C752.8,47.6,750.5,50.9,750.5,57.6z"/>
		</g>
	</g>
	<g>
		<g>
			<path d="M799.8,40.5h10.4l-11.3,34.5h-11l-11.2-34.5h10.5l4.7,17.5c1,3.9,1.5,6.6,1.6,8.1c0.1-1.1,0.3-2.5,0.7-4.1
				s0.6-2.9,0.9-3.9L799.8,40.5z"/>
		</g>
	</g>
	<g>
		<g>
			<path d="M834.4,74.9h-20.5V40.5h20.5v7.5h-11.2v5.4h10.3v7.5h-10.3v6.5h11.2V74.9z"/>
		</g>
	</g>
	<g>
		<g>
			<path d="M855.4,74.9l-7.1-24.8h-0.2c0.3,4.2,0.5,7.5,0.5,9.9v15h-8.3V40.5h12.4l7.2,24.5h0.2l7.1-24.5h12.4v34.5h-8.6V59.8
				c0-0.8,0-1.7,0-2.6c0-1,0.1-3.3,0.3-7.1h-0.2l-7,24.8H855.4z"/>
		</g>
	</g>
	<g>
		<g>
			<path d="M907.6,74.9h-20.5V40.5h20.5v7.5h-11.2v5.4h10.3v7.5h-10.3v6.5h11.2V74.9z"/>
		</g>
	</g>
	<g>
		<g>
			<path d="M946.5,74.9h-12.2l-12.6-24.3h-0.2c0.3,3.8,0.4,6.7,0.4,8.7v15.5h-8.3V40.5h12.2l12.5,24h0.1c-0.2-3.5-0.3-6.3-0.3-8.4
				V40.5h8.3V74.9z"/>
		</g>
	</g>
	<g>
		<g>
			<path d="M969.1,74.9h-9.3V48.1h-8.4v-7.6h26.1v7.6h-8.4V74.9z"/>
		</g>
	</g>
	<g>
		<g>
			<path class="st1" d="M1019.2,74.9h-38.4v-8.2l21.3-30.3h-20.8V25.7h37.3v8.2l-21.3,30.3h21.9V74.9z"/>
		</g>
	</g>
	<g>
		<g>
			<path d="M1023.8,69.3c0-2.1,0.6-3.7,1.8-4.8c1.2-1.1,3-1.7,5.3-1.7c2.2,0,3.9,0.6,5.1,1.7c1.2,1.1,1.8,2.7,1.8,4.8
				c0,2-0.6,3.6-1.8,4.7c-1.2,1.1-2.9,1.7-5.1,1.7c-2.2,0-4-0.6-5.3-1.7C1024.4,73,1023.8,71.4,1023.8,69.3z"/>
		</g>
	</g>
	<g>
		<g>
			<path d="M1059.9,47.6c-2.2,0-3.9,0.9-5.2,2.7s-1.9,4.3-1.9,7.5c0,6.6,2.5,10,7.6,10c1.5,0,3-0.2,4.4-0.6s2.9-0.9,4.3-1.5v7.9
				c-2.9,1.3-6.1,1.9-9.8,1.9c-5.2,0-9.2-1.5-12-4.5c-2.8-3-4.2-7.4-4.2-13.1c0-3.6,0.7-6.7,2-9.4c1.3-2.7,3.3-4.8,5.8-6.2
				c2.5-1.5,5.5-2.2,8.9-2.2c3.7,0,7.3,0.8,10.7,2.4l-2.9,7.3c-1.3-0.6-2.5-1.1-3.8-1.5C1062.7,47.8,1061.4,47.6,1059.9,47.6z"/>
		</g>
	</g>
	<g>
		<g>
			<path d="M1108.1,57.6c0,5.8-1.4,10.2-4.3,13.2c-2.8,3-7,4.5-12.5,4.5c-5.4,0-9.6-1.5-12.4-4.6c-2.9-3-4.3-7.5-4.3-13.3
				c0-5.7,1.4-10.1,4.3-13.1c2.9-3,7-4.5,12.5-4.5c5.5,0,9.6,1.5,12.5,4.5C1106.7,47.4,1108.1,51.8,1108.1,57.6z M1084.4,57.6
				c0,6.7,2.3,10,7,10c2.4,0,4.1-0.8,5.2-2.4c1.1-1.6,1.7-4.1,1.7-7.6c0-3.4-0.6-6-1.7-7.6c-1.2-1.6-2.9-2.5-5.2-2.5
				C1086.8,47.6,1084.4,50.9,1084.4,57.6z"/>
		</g>
	</g>
	<g>
		<g>
			<path d="M1129.4,74.9l-7.1-24.8h-0.2c0.3,4.2,0.5,7.5,0.5,9.9v15h-8.3V40.5h12.4l7.2,24.5h0.2l7.1-24.5h12.4v34.5h-8.6V59.8
				c0-0.8,0-1.7,0-2.6c0-1,0.1-3.3,0.3-7.1h-0.2l-7,24.8H1129.4z"/>
		</g>
	</g>
</g>
<g>
	<g>
		<g>
			<path class="st2" d="M946.8,140.4"/>
		</g>
	</g>
</g>
<g>
	<g>
		<g>
			<rect x="608.2" y="120.3" width="9.3" height="4"/>
		</g>
	</g>
</g>
<g>
	<g>
		<g>
			<g>
				<g>
					<path class="st0" d="M91.3,51c0,0.3,0,0.6,0,0.9L64.8,52c0-8-6.5-14.5-14.5-14.5c0,0,0,0,0,0V10c0,0,0,0,0,0
						C72.9,10,91.3,28.4,91.3,51z"/>
				</g>
			</g>
		</g>
		<g>
			<g>
				<g>
					<path class="st0" d="M64.8,52l26.5-0.1C90.8,74.2,72.6,92,50.3,92c0,0,0,0,0,0l0-1.6V66.5c0,0,0,0,0,0
						C58.3,66.5,64.8,60,64.8,52C64.8,52,64.8,52,64.8,52z"/>
				</g>
			</g>
		</g>
		<g>
			<g>
				<g>
					<path class="st0" d="M64.8,52C64.8,52,64.8,52,64.8,52c0,8.1-6.5,14.6-14.5,14.6c0,0,0,0,0,0V52h2L64.8,52z"/>
				</g>
			</g>
		</g>
		<g>
			<g>
				<g>
					<path class="st0" d="M64.8,52l-12.5,0h-2V37.5c0,0,0,0,0,0C58.3,37.5,64.8,44,64.8,52z"/>
				</g>
			</g>
		</g>
		<g>
			<g>
				<g>
					<path class="st0" d="M50.2,66.5v23.9l0,1.6c-22.3,0-40.4-17.8-41-40h26.5c0,0,0,0,0,0C35.7,60,42.2,66.5,50.2,66.5z"/>
				</g>
			</g>
		</g>
		<g>
			<g>
				<g>
					<path class="st0" d="M35.7,52C35.7,52,35.7,52,35.7,52l14.5,0v14.5C42.2,66.5,35.7,60,35.7,52C35.7,52,35.7,52,35.7,52z"/>
				</g>
			</g>
		</g>
		<g>
			<g>
				<g>
					<path class="st0" d="M50.2,37.5V52l-14.5,0C35.8,44,42.2,37.5,50.2,37.5z"/>
				</g>
			</g>
		</g>
		<g>
			<g>
				<g>
					<path class="st0" d="M50.2,10v27.5c-8,0-14.5,6.5-14.5,14.5L9.3,51.9c0-0.3,0-0.6,0-0.9C9.3,28.4,27.6,10,50.2,10z"/>
				</g>
			</g>
		</g>
		<g>
			<g>
				<g>
					<path class="st0" d="M35.7,52C35.7,52,35.7,52,35.7,52L9.3,52c0,0,0,0,0-0.1L35.7,52z"/>
				</g>
			</g>
		</g>
	</g>
	<g>
		<g>
			<g>
				<path d="M50.3,95c-11.6,0-22.5-4.5-30.8-12.6C11.2,74.4,6.6,63.6,6.3,52.1l0-0.1c0-0.3,0-0.6,0-0.9c0-24.3,19.7-44,44-44
					c24.3,0,44,19.7,44,44c0,0.3,0,0.7,0,1C93.7,75.7,74,95,50.3,95z M50.3,13c-21,0-38,17.1-38,38c0,0.3,0,0.5,0,0.8l0,0.1
					C12.8,72.4,29.8,89,50.2,89c20.5,0,37.6-16.7,38-37.2l0,0c0-0.3,0-0.5,0-0.8C88.3,30.1,71.2,13,50.3,13z"/>
			</g>
		</g>
	</g>
	<g>
		<g>
			<g>
				<path d="M50.3,68.5L50.3,68.5c-9.1,0-16.5-7.4-16.5-16.5c0-9.1,7.4-16.5,16.5-16.5c9.1,0,16.5,7.4,16.5,16.5
					C66.8,61.1,59.4,68.5,50.3,68.5z M50.3,64.5L50.3,64.5c6.9,0,12.5-5.6,12.5-12.5c0-6.9-5.6-12.5-12.5-12.5
					c-6.9,0-12.5,5.6-12.5,12.5C37.7,58.9,43.4,64.5,50.3,64.5z"/>
			</g>
		</g>
	</g>
	<g>
		<g>
			<g>
				<rect x="49.2" y="9.3" width="2" height="81.2"/>
			</g>
		</g>
	</g>
	<g>
		<g>
			<g>
				<rect x="8.3" y="51" width="28.7" height="2"/>
			</g>
		</g>
	</g>
	<g>
		<g>
			<g>
				<path d="M9.3,51c0,0-2.1-34.3,40-42.6v29c0,0-14.4,2.7-13.5,14.5L9.3,51z"/>
			</g>
		</g>
	</g>
	<g>
		<g>
			<g>
				<path d="M50.3,38.3c7.6,0,13.8,6.2,13.8,13.8S57.9,66,50.3,66V38.3z"/>
			</g>
		</g>
	</g>
	<g>
		<g>
			<g>
				<rect x="91.2" y="49.6" width="9.3" height="4"/>
			</g>
		</g>
	</g>
	<g>
		<g>
			<g>
				<rect x="0" y="49.6" width="9.3" height="4"/>
			</g>
		</g>
	</g>
	<g>
		<g>
			<g>
				<g>
					<rect x="48.4" y="91.2" width="4" height="9.3"/>
				</g>
			</g>
		</g>
		<g>
			<g>
				<g>
					<rect x="48.4" y="0" width="4" height="9.3"/>
				</g>
			</g>
		</g>
	</g>
</g>
</svg>
