<?xml version="1.0" encoding="utf-8"?>
<!-- Generator: Adobe Illustrator 24.2.3, SVG Export Plug-In . SVG Version: 6.00 Build 0)  -->
<svg version="1.1" id="Layer_1" xmlns="http://www.w3.org/2000/svg" xmlns:xlink="http://www.w3.org/1999/xlink" x="0px" y="0px"
	 viewBox="0 0 2580.6 219.7" style="enable-background:new 0 0 2580.6 219.7;" xml:space="preserve">
<style type="text/css">
	.st0{fill:#FFFFFF;}
	.st1{fill:#ED1A3B;}
	.st2{fill:#FF1D25;}
</style>
<g>
	<g>
		<path class="st0" d="M134.9,78.4l3.1-3.1c2.1,1.4,4.6,1.3,6.2-0.4c1.9-1.9,2-4.7,0.1-6.6l-8.2-8.2c-1.9-1.9-4.7-1.7-6.6,0.1
			c-1.6,1.6-1.8,4.1-0.4,6.2l-3.1,3.1c-9-7.6-19.7-13.1-31.4-16c8.4-5.3,14-14.2,14-24.4C108.7,13.2,94.6,0,77.2,0
			C59.8,0,45.7,13.2,45.7,29.4c0,10.1,5.4,18.9,13.7,24.2C25.4,61.4,0,92,0,128.3C0,170.6,34.4,205,76.7,205
			c42.3,0,76.7-34.4,76.7-76.7C153.4,109.3,146.4,91.8,134.9,78.4z M51.6,29.4c0-12.9,11.5-23.5,25.6-23.5
			c14.1,0,25.6,10.5,25.6,23.5c0,10.2-7.1,18.8-17,22.1V37.8h4.7c2.1,0,3.7-1.7,3.7-3.7V22.8c0-2.1-1.7-3.7-3.7-3.7H64.6
			c-2.1,0-3.7,1.7-3.7,3.7v11.3c0,2.1,1.7,3.7,3.7,3.7h4.7v13.9C59.1,48.6,51.6,39.8,51.6,29.4z"/>
	</g>
	<g>
		<g>
			<path d="M131.5,125.7h13c-0.6-16.7-7.4-31.9-18-43.5l-5.5,5.5c-1,1-2.7,1-3.7,0c-1-1-1-2.7,0-3.7l5.5-5.5
				c-11.5-10.7-26.7-17.4-43.5-18v13c0,1.4-1.2,2.6-2.6,2.6c-1.4,0-2.6-1.2-2.6-2.6v-13c-16.7,0.6-31.9,7.4-43.5,18l5.5,5.5
				c1,1,1,2.7,0,3.7c-1,1-2.7,1-3.7,0l-5.5-5.5C16.3,93.8,9.6,109,8.9,125.7h13c1.4,0,2.6,1.2,2.6,2.6c0,1.4-1.2,2.6-2.6,2.6h-13
				c0.6,16.7,7.4,31.9,18,43.5l5.5-5.5c1-1,2.7-1,3.7,0c1,1,1,2.7,0,3.7l-5.5,5.5c11.5,10.7,26.7,17.4,43.5,18v-13
				c0-1.4,1.2-2.6,2.6-2.6c1.4,0,2.6,1.2,2.6,2.6v13c16.7-0.6,31.9-7.4,43.5-18l-5.5-5.5c-1-1-1-2.7,0-3.7c1-1,2.7-1,3.7,0l5.5,5.5
				c10.7-11.5,17.4-26.7,18-43.5h-13c-1.4,0-2.6-1.2-2.6-2.6C128.9,126.9,130.1,125.7,131.5,125.7z"/>
		</g>
	</g>
	<g>
		<path class="st1" d="M110.1,95.3l-33.3,34.3V80.9c12,0,25,5.5,33.8,14.3C110.6,95.2,110.1,95.2,110.1,95.3z"/>
	</g>
	<g>
		<path class="st0" d="M83.8,134.2c-3.4,4.1-8.9,4.8-12.7,1l-0.3-0.3c-3.8-3.8-3.1-9.2,1-12.7c9.1-7.7,28.5-21.1,37-27.3
			c1.8-1.3,3.4,0.9,2.3,2.3C103.8,107.1,91.4,125.1,83.8,134.2z"/>
	</g>
</g>
<g>
	<g>
		<path class="st0" d="M210.2,71.5h-0.8L172.3,96V58.8l37.9-25.4h44.4v151.2h-44.4V71.5z"/>
	</g>
	<g>
		<path class="st0" d="M314.6,177.8c-10.1-6.4-17.9-15.4-23.4-27.1c-5.5-11.7-8.2-25.6-8.2-41.6v-0.2c0-16.1,2.7-29.9,8.2-41.6
			c5.5-11.7,13.3-20.7,23.4-27c10.1-6.3,22.2-9.5,36.1-9.5c14,0,26,3.2,36.1,9.5c10.1,6.3,17.9,15.3,23.3,27
			c5.4,11.7,8.2,25.6,8.2,41.6v0.2c0,16.1-2.7,29.9-8.2,41.6c-5.4,11.7-13.2,20.7-23.3,27.1c-10.1,6.4-22.1,9.5-36.1,9.5
			C336.7,187.3,324.7,184.2,314.6,177.8z M363.1,148.1c3.4-3.4,5.9-8.4,7.6-14.9c1.7-6.6,2.6-14.6,2.6-24.1v-0.2
			c0-9.5-0.9-17.5-2.6-24c-1.7-6.5-4.3-11.5-7.6-14.9c-3.4-3.4-7.5-5.1-12.4-5.1c-4.9,0-9,1.7-12.4,5.1c-3.4,3.4-6,8.3-7.7,14.9
			c-1.7,6.5-2.6,14.5-2.6,24v0.2c0,9.5,0.9,17.5,2.6,24.1c1.7,6.6,4.3,11.5,7.7,14.9c3.4,3.4,7.5,5.1,12.4,5.1
			C355.6,153.2,359.7,151.5,363.1,148.1z"/>
	</g>
	<g>
		<path class="st0" d="M463.8,181.9c-9.5-3.6-17-8.9-22.3-15.9c-5.3-6.9-8.3-15.4-8.9-25.3l-0.1-2h40.9l0.2,0.9
			c0.6,2.7,2.1,5.1,4.4,7.1c2.3,2,5.2,3.6,8.7,4.8c3.5,1.2,7.3,1.7,11.5,1.7c4.5,0,8.3-0.6,11.5-1.7c3.2-1.1,5.6-2.7,7.4-4.6
			c1.7-2,2.6-4.2,2.6-6.7v-0.1c0-3.6-1.7-6.2-5.1-8.1c-3.4-1.8-9.3-3.5-17.7-5l-15.2-2.7c-15-2.7-26.5-7.7-34.5-15.2
			c-8-7.5-12-17.1-12-28.8v-0.1c0-10.1,2.7-18.9,8-26.3c5.3-7.4,12.7-13.1,22.1-17.2c9.4-4,20-6.1,31.9-6.1c13.5,0,24.8,1.9,34,5.7
			c9.2,3.8,16.3,9.1,21.2,16.1c4.9,6.9,7.5,15.1,8,24.6l0.1,2.3h-40.9l-0.1-1c-0.3-2.8-1.4-5.2-3.3-7.2c-1.9-2-4.5-3.5-7.6-4.7
			c-3.2-1.1-6.8-1.7-10.8-1.7c-4.1,0-7.5,0.5-10.2,1.6c-2.8,1.1-4.8,2.6-6.2,4.4c-1.4,1.9-2.1,3.9-2.1,6.2v0.1
			c0,3.4,1.7,6.1,5.1,7.9c3.4,1.9,8.9,3.5,16.4,4.9l15.2,2.7c16.2,2.9,28.2,7.9,36,14.8c7.8,6.9,11.7,16.5,11.7,28.8v0.1
			c0,10.4-2.6,19.4-7.8,27.1c-5.2,7.6-12.7,13.5-22.6,17.7c-9.8,4.2-21.7,6.2-35.6,6.2C484.6,187.3,473.3,185.5,463.8,181.9z"/>
	</g>
	<g>
		<path class="st0" d="M603,179.9c-9-4.8-15.9-11.7-20.8-20.8c-4.9-9-7.3-19.8-7.3-32.3v-0.1c0-12.6,2.4-23.3,7.2-32.3
			c4.8-9,11.6-15.9,20.5-20.7c8.8-4.8,19.3-7.2,31.3-7.2c12,0,22.4,2.4,31.3,7.1c8.8,4.8,15.7,11.5,20.5,20.1
			c4.9,8.7,7.3,18.9,7.3,30.6v12.2h-97.1v-24.3H673L653.2,135v-16.6c0-4.7-0.8-8.7-2.3-12c-1.5-3.4-3.6-5.9-6.3-7.7S638.7,96,635,96
			c-3.7,0-6.9,0.9-9.6,2.7s-4.8,4.3-6.3,7.7c-1.5,3.4-2.3,7.4-2.3,12v16.8c0,4.7,0.8,8.7,2.3,12c1.5,3.4,3.7,5.9,6.6,7.7
			c2.9,1.8,6.3,2.7,10.4,2.7c3.8,0,6.9-0.6,9.4-1.8c2.5-1.2,4.5-2.6,5.9-4.2c1.4-1.6,2.3-3,2.7-4.1l0.1-0.3h38.2l-0.3,1.4
			c-0.8,3.8-2.4,7.9-4.7,12.3c-2.3,4.4-5.6,8.7-10,12.7c-4.3,4-9.9,7.3-16.8,9.8c-6.9,2.5-15.3,3.8-25.4,3.8
			C622.7,187.1,612,184.7,603,179.9z"/>
	</g>
	<g>
		<path class="st0" d="M731.2,179.9c-9-4.8-15.9-11.7-20.8-20.8c-4.9-9-7.3-19.9-7.3-32.4v-0.1c0-12.5,2.4-23.2,7.3-32.2
			c4.9-9,11.8-15.9,20.7-20.7c9-4.8,19.6-7.2,32-7.2c11.2,0,21.1,2,29.6,6.1s15.1,9.8,19.8,17.2c4.7,7.4,7.1,16.1,7.1,26.1v0.6
			h-39.1l-0.1-1c-0.5-5.2-2.2-9.4-5.1-12.5c-2.9-3.1-6.7-4.7-11.3-4.7c-3.7,0-6.8,1.1-9.4,3.3c-2.6,2.2-4.5,5.4-5.9,9.6
			c-1.3,4.2-2,9.4-2,15.5v0.1c0,6.1,0.6,11.3,1.9,15.6c1.3,4.3,3.2,7.5,5.8,9.6c2.6,2.2,5.8,3.2,9.5,3.2c4.8,0,8.6-1.5,11.5-4.6
			c2.8-3.1,4.5-7.3,5-12.6l0.1-1h39.1v0.6c0,9.4-2.2,17.9-6.7,25.3c-4.4,7.4-10.8,13.3-19.2,17.7s-18.5,6.5-30.3,6.5
			C750.9,187.1,740.2,184.7,731.2,179.9z"/>
	</g>
	<g>
		<path class="st0" d="M857.5,180.1c-9.1-4.7-16-11.6-20.9-20.5c-4.9-9-7.3-19.9-7.3-32.6v-0.2c0-12.6,2.5-23.4,7.5-32.4
			c5-9,12-15.9,21.1-20.7c9.1-4.8,19.8-7.2,32.2-7.2c12.4,0,23.2,2.4,32.3,7.1c9.1,4.8,16.1,11.6,21.1,20.6c5,9,7.5,19.8,7.5,32.5
			v0.2c0,12.9-2.4,23.8-7.3,32.7c-4.9,9-11.9,15.8-21,20.5c-9.1,4.7-19.9,7-32.6,7C877.4,187.1,866.6,184.8,857.5,180.1z M899.4,152
			c2.6-2.2,4.6-5.4,5.9-9.6c1.4-4.2,2-9.4,2-15.5v-0.2c0-6-0.7-11.1-2.1-15.3c-1.4-4.2-3.4-7.5-6-9.7c-2.6-2.2-5.6-3.4-9.1-3.4
			c-3.5,0-6.5,1.1-9.1,3.4c-2.6,2.2-4.6,5.5-6,9.7c-1.4,4.2-2.1,9.3-2.1,15.3v0.2c0,6.1,0.7,11.2,2,15.5c1.4,4.2,3.3,7.4,5.9,9.6
			c2.6,2.2,5.7,3.3,9.3,3.3C893.8,155.3,896.8,154.2,899.4,152z"/>
	</g>
	<g>
		<path class="st0" d="M964.1,69h42.9v21.5h0.8c2.9-7.8,7.2-13.8,13.1-17.9c5.9-4.1,13.2-6.1,21.9-6.1c12.7,0,22.5,3.8,29.4,11.5
			c6.9,7.7,10.3,18.5,10.3,32.4v74.3h-42.9v-64.8c0-5.8-1.4-10.4-4.1-13.7s-6.8-5-12.2-5c-3.4,0-6.3,0.8-8.7,2.4
			c-2.4,1.6-4.3,3.8-5.7,6.6c-1.3,2.8-2,6-2,9.6v64.9h-42.9V69z"/>
	</g>
	<g>
		<path class="st0" d="M1116,180.1c-6.7-4.7-11.9-11.6-15.4-20.5c-3.5-9-5.3-19.9-5.3-32.7v-0.1c0-12.9,1.8-23.9,5.3-32.8
			c3.5-9,8.7-15.8,15.4-20.4c6.7-4.6,15-7,24.7-7c8.3,0,15.4,2.1,21.4,6.2c5.9,4.1,10.3,9.8,13,17.2h0.8V33.5h42.9v151.2h-42.9
			v-19.8h-0.8c-2.6,7-6.9,12.4-12.9,16.4c-6,3.9-13.3,5.9-21.6,5.9C1130.9,187.1,1122.7,184.8,1116,180.1z M1167.2,149.5
			c2.8-2,4.9-5,6.4-8.8c1.5-3.8,2.3-8.4,2.3-13.8v-0.1c0-5.4-0.8-10.1-2.3-13.9c-1.5-3.8-3.7-6.8-6.4-8.8c-2.8-2-6-3-9.8-3
			c-3.7,0-6.9,1-9.7,3c-2.8,2-4.9,5-6.4,8.8c-1.5,3.8-2.3,8.5-2.3,13.8v0.1c0,5.3,0.7,9.9,2.3,13.7c1.5,3.8,3.6,6.8,6.4,8.9
			c2.8,2.1,6,3.1,9.7,3.1C1161.1,152.6,1164.4,151.5,1167.2,149.5z"/>
	</g>
	<path class="st2" d="M1237.3,33.5h68.1c13,0,23.9,2,32.8,6c8.9,4,15.7,9.8,20.3,17.5c4.6,7.7,6.9,17.1,6.9,28.3v0.2
		c0,9.4-2.2,18.1-6.7,25.9c-4.4,7.8-10.3,13.5-17.7,17.1l28.7,56.3h-49.7l-23.9-49.7c-0.3,0-0.6,0-0.9,0c-0.3,0-0.7,0-1,0h-12.6
		v49.7h-44.4V33.5z M1300.3,103.6c6,0,10.8-1.7,14.5-5.1c3.6-3.4,5.4-7.9,5.4-13.4v-0.2c0-5.5-1.9-10-5.6-13.5
		c-3.7-3.5-8.5-5.2-14.4-5.2h-18.5v37.4H1300.3z"/>
	<path class="st2" d="M1404.1,179.9c-9-4.8-15.9-11.7-20.8-20.8c-4.9-9-7.3-19.8-7.3-32.3v-0.1c0-12.6,2.4-23.3,7.2-32.3
		c4.8-9,11.6-15.9,20.5-20.7c8.8-4.8,19.3-7.2,31.3-7.2c12,0,22.4,2.4,31.3,7.1c8.8,4.8,15.7,11.5,20.5,20.1
		c4.9,8.7,7.3,18.9,7.3,30.6v12.2H1397v-24.3h77.2l-19.8,22.8v-16.6c0-4.7-0.8-8.7-2.3-12c-1.5-3.4-3.6-5.9-6.3-7.7
		s-5.9-2.7-9.6-2.7c-3.7,0-6.9,0.9-9.6,2.7s-4.8,4.3-6.3,7.7c-1.5,3.4-2.3,7.4-2.3,12v16.8c0,4.7,0.8,8.7,2.3,12
		c1.5,3.4,3.7,5.9,6.6,7.7c2.9,1.8,6.3,2.7,10.4,2.7c3.8,0,6.9-0.6,9.4-1.8c2.5-1.2,4.5-2.6,5.9-4.2c1.4-1.6,2.3-3,2.7-4.1l0.1-0.3
		h38.2l-0.3,1.4c-0.8,3.8-2.4,7.9-4.7,12.3c-2.3,4.4-5.6,8.7-10,12.7c-4.3,4-9.9,7.3-16.8,9.8c-6.9,2.5-15.3,3.8-25.4,3.8
		C1423.9,187.1,1413.1,184.7,1404.1,179.9z"/>
	<path class="st2" d="M1532.3,179.9c-9-4.8-15.9-11.7-20.8-20.8c-4.9-9-7.3-19.9-7.3-32.4v-0.1c0-12.5,2.4-23.2,7.3-32.2
		c4.9-9,11.8-15.9,20.7-20.7c9-4.8,19.6-7.2,32-7.2c11.2,0,21.1,2,29.6,6.1s15.1,9.8,19.8,17.2c4.7,7.4,7.1,16.1,7.1,26.1v0.6h-39.1
		l-0.1-1c-0.5-5.2-2.2-9.4-5.1-12.5c-2.9-3.1-6.7-4.7-11.3-4.7c-3.7,0-6.8,1.1-9.4,3.3c-2.6,2.2-4.5,5.4-5.9,9.6
		c-1.3,4.2-2,9.4-2,15.5v0.1c0,6.1,0.6,11.3,1.9,15.6c1.3,4.3,3.2,7.5,5.8,9.6c2.6,2.2,5.8,3.2,9.5,3.2c4.8,0,8.6-1.5,11.5-4.6
		c2.8-3.1,4.5-7.3,5-12.6l0.1-1h39.1v0.6c0,9.4-2.2,17.9-6.7,25.3c-4.4,7.4-10.8,13.3-19.2,17.7s-18.5,6.5-30.3,6.5
		C1552.1,187.1,1541.3,184.7,1532.3,179.9z"/>
	<path class="st2" d="M1633.4,69h42.9v115.6h-42.9V69z M1639.8,52.5c-4.1-4-6.1-8.8-6.1-14.4c0-5.6,2-10.4,6.1-14.4
		c4.1-4,9.1-6,15.1-6c6,0,11.1,2,15.1,6c4.1,4,6.1,8.8,6.1,14.4c0,5.5-2,10.3-6.1,14.4c-4.1,4.1-9.1,6.1-15.1,6.1
		C1648.9,58.6,1643.8,56.6,1639.8,52.5z"/>
	<path class="st2" d="M1692.5,69h42.9v20.8h0.9c1.8-4.9,4.3-9.1,7.6-12.6c3.2-3.5,7.1-6.2,11.6-8c4.5-1.8,9.4-2.8,14.9-2.8
		c9.7,0,17.9,2.3,24.7,7c6.7,4.6,11.9,11.5,15.4,20.4c3.5,9,5.3,19.9,5.3,32.8v0.1c0,12.9-1.7,23.8-5.2,32.7
		c-3.5,9-8.5,15.8-15.2,20.5c-6.7,4.7-14.8,7.1-24.5,7.1c-5.6,0-10.7-0.9-15.2-2.7c-4.6-1.8-8.5-4.4-11.8-7.8
		c-3.3-3.4-5.8-7.4-7.6-12h-0.8v56.7h-42.9V69z M1763.6,149.4c2.8-2.1,4.9-5.1,6.4-8.9c1.5-3.8,2.3-8.4,2.3-13.7v-0.1
		c0-5.4-0.8-10-2.3-13.8c-1.5-3.8-3.7-6.8-6.4-8.8c-2.8-2-6-3-9.7-3c-3.7,0-6.9,1-9.7,3c-2.8,2-5,5-6.5,8.8
		c-1.5,3.8-2.3,8.5-2.3,13.9v0.1c0,5.4,0.8,10,2.3,13.8c1.5,3.8,3.7,6.8,6.4,8.8c2.8,2,6,3,9.8,3
		C1757.6,152.6,1760.8,151.5,1763.6,149.4z"/>
	<path class="st2" d="M1854.3,179.9c-9-4.8-15.9-11.7-20.8-20.8c-4.9-9-7.3-19.8-7.3-32.3v-0.1c0-12.6,2.4-23.3,7.2-32.3
		c4.8-9,11.6-15.9,20.5-20.7c8.8-4.8,19.3-7.2,31.3-7.2c12,0,22.4,2.4,31.3,7.1c8.8,4.8,15.7,11.5,20.5,20.1
		c4.9,8.7,7.3,18.9,7.3,30.6v12.2h-97.1v-24.3h77.2l-19.8,22.8v-16.6c0-4.7-0.8-8.7-2.3-12c-1.5-3.4-3.6-5.9-6.3-7.7
		s-5.9-2.7-9.6-2.7c-3.7,0-6.9,0.9-9.6,2.7s-4.8,4.3-6.3,7.7c-1.5,3.4-2.3,7.4-2.3,12v16.8c0,4.7,0.8,8.7,2.3,12
		c1.5,3.4,3.7,5.9,6.6,7.7c2.9,1.8,6.3,2.7,10.4,2.7c3.8,0,6.9-0.6,9.4-1.8c2.5-1.2,4.5-2.6,5.9-4.2c1.4-1.6,2.3-3,2.7-4.1l0.1-0.3
		h38.2l-0.3,1.4c-0.8,3.8-2.4,7.9-4.7,12.3c-2.3,4.4-5.6,8.7-10,12.7c-4.3,4-9.9,7.3-16.8,9.8c-6.9,2.5-15.3,3.8-25.4,3.8
		C1874.1,187.1,1863.4,184.7,1854.3,179.9z"/>
	<path class="st2" d="M1980.4,182.3c-8.3-3.2-14.7-7.8-19.3-13.6c-4.5-5.8-7.3-12.5-8.2-20.2l-0.1-0.9h41.5l0.2,0.8
		c0.8,3.4,2.6,6,5.3,7.9c2.7,1.9,6.4,2.8,11.3,2.8c2.8,0,5.2-0.3,7.2-0.9c2-0.6,3.5-1.4,4.6-2.6c1.1-1.1,1.6-2.4,1.6-4v-0.1
		c0-2.1-1-3.8-2.9-5.1c-2-1.3-5.3-2.4-10.1-3.3l-21-3.9c-11.5-2.1-20.2-6.1-26.1-12c-6-5.9-9-13.4-9-22.3v-0.1
		c0-8,2.2-14.9,6.5-20.6c4.3-5.7,10.5-10.1,18.6-13.1c8.1-3.1,17.7-4.6,28.9-4.6c11.9,0,21.9,1.8,29.9,5.3c8,3.6,14,8.3,18.1,14.1
		c4,5.9,6.1,12.3,6.1,19.4v0.7h-39l-0.1-0.9c-0.3-2.7-1.7-5.2-4.2-7.3c-2.5-2.2-6.1-3.2-10.7-3.2c-2.6,0-4.9,0.3-6.8,0.9
		s-3.5,1.5-4.6,2.7c-1.1,1.2-1.6,2.6-1.6,4.2v0.1c0,2,0.9,3.7,2.8,5c1.8,1.3,5.4,2.4,10.6,3.4l21,3.9c12.5,2.3,21.6,6,27.4,11.1
		c5.8,5.1,8.7,12,8.7,20.7v0.1c0,8.3-2.3,15.5-7,21.5c-4.7,6-11.2,10.7-19.6,14c-8.4,3.3-18.2,4.9-29.3,4.9
		C1998.9,187.1,1988.7,185.5,1980.4,182.3z"/>
	<g>
		<path class="st0" d="M2083.3,180.3c-4.3-4.3-6.4-9.5-6.4-15.6c0-6.1,2.1-11.3,6.4-15.6c4.3-4.3,9.5-6.4,15.6-6.4
			c6.1,0,11.3,2.1,15.6,6.4c4.3,4.3,6.4,9.5,6.4,15.6c0,6.1-2.1,11.3-6.4,15.6c-4.3,4.3-9.5,6.4-15.6,6.4
			C2092.8,186.7,2087.6,184.6,2083.3,180.3z"/>
	</g>
	<g>
		<path class="st0" d="M2157.6,179.9c-9-4.8-15.9-11.7-20.8-20.8c-4.9-9-7.3-19.9-7.3-32.4v-0.1c0-12.5,2.4-23.2,7.3-32.2
			c4.9-9,11.8-15.9,20.7-20.7c9-4.8,19.6-7.2,32-7.2c11.2,0,21.1,2,29.6,6.1s15.1,9.8,19.8,17.2c4.7,7.4,7.1,16.1,7.1,26.1v0.6
			h-39.1l-0.1-1c-0.5-5.2-2.2-9.4-5.1-12.5c-2.9-3.1-6.7-4.7-11.3-4.7c-3.7,0-6.8,1.1-9.4,3.3c-2.6,2.2-4.5,5.4-5.9,9.6
			c-1.3,4.2-2,9.4-2,15.5v0.1c0,6.1,0.6,11.3,1.9,15.6c1.3,4.3,3.2,7.5,5.8,9.6c2.6,2.2,5.8,3.2,9.5,3.2c4.8,0,8.6-1.5,11.5-4.6
			c2.8-3.1,4.5-7.3,5-12.6l0.1-1h39.1v0.6c0,9.4-2.2,17.9-6.7,25.3c-4.4,7.4-10.8,13.3-19.2,17.7s-18.5,6.5-30.3,6.5
			C2177.4,187.1,2166.6,184.7,2157.6,179.9z"/>
	</g>
	<g>
		<path class="st0" d="M2283.9,180.1c-9.1-4.7-16-11.6-20.9-20.5c-4.9-9-7.3-19.9-7.3-32.6v-0.2c0-12.6,2.5-23.4,7.5-32.4
			c5-9,12-15.9,21.1-20.7c9.1-4.8,19.8-7.2,32.2-7.2c12.4,0,23.2,2.4,32.3,7.1c9.1,4.8,16.1,11.6,21.1,20.6c5,9,7.5,19.8,7.5,32.5
			v0.2c0,12.9-2.4,23.8-7.3,32.7c-4.9,9-11.9,15.8-21,20.5c-9.1,4.7-19.9,7-32.6,7C2303.9,187.1,2293,184.8,2283.9,180.1z
			 M2325.8,152c2.6-2.2,4.6-5.4,5.9-9.6c1.4-4.2,2-9.4,2-15.5v-0.2c0-6-0.7-11.1-2.1-15.3c-1.4-4.2-3.4-7.5-6-9.7
			c-2.6-2.2-5.6-3.4-9.1-3.4c-3.5,0-6.5,1.1-9.1,3.4c-2.6,2.2-4.6,5.5-6,9.7c-1.4,4.2-2.1,9.3-2.1,15.3v0.2c0,6.1,0.7,11.2,2,15.5
			c1.4,4.2,3.3,7.4,5.9,9.6c2.6,2.2,5.7,3.3,9.3,3.3C2320.2,155.3,2323.3,154.2,2325.8,152z"/>
	</g>
	<g>
		<path class="st0" d="M2390.6,69h42.9v21.9h0.8c2.1-7.5,6.1-13.4,12-17.8c5.9-4.4,12.9-6.6,20.9-6.6c5.6,0,10.6,1,14.9,3
			c4.4,2,8,4.9,10.8,8.6c2.8,3.8,4.7,8.4,5.6,13.8h0.8c1.3-5.1,3.7-9.5,7-13.4c3.4-3.8,7.5-6.8,12.4-8.9c4.9-2.1,10.3-3.2,16.1-3.2
			c7.5,0,14.2,1.7,19.9,5c5.7,3.4,10.1,8,13.4,14c3.2,6,4.8,12.9,4.8,20.8v78.4H2530v-67.1c0-5.5-1.2-9.6-3.5-12.4
			c-2.3-2.7-5.8-4.1-10.5-4.1c-2.9,0-5.3,0.7-7.4,2c-2.1,1.3-3.7,3.2-4.8,5.6c-1.1,2.4-1.6,5.3-1.6,8.7v67.3h-40.7v-67
			c0-5.5-1.2-9.7-3.5-12.4c-2.3-2.8-5.8-4.1-10.4-4.1c-2.9,0-5.3,0.7-7.4,2c-2.1,1.3-3.7,3.2-4.8,5.7c-1.1,2.4-1.7,5.3-1.7,8.7v67.3
			h-42.9V69z"/>
	</g>
</g>
</svg>
